# Blender 4.2.14 LTS
# www.blender.org
mtllib FloorLVL4obj.mtl
o Suelo
v -10.436834 -0.330586 -2.695085
v 10.424423 -0.330586 -2.695085
v -10.436834 -0.330586 19.810598
v 10.424423 -0.330586 19.810598
v -8.540356 -0.330586 19.810598
v -6.643878 -0.330586 19.810598
v -4.747400 -0.330586 19.810598
v -2.850922 -0.330586 19.810598
v -0.954444 -0.330586 19.810598
v 0.942034 -0.330586 19.810598
v 2.838512 -0.330586 19.810598
v 4.734990 -0.330586 19.810598
v 6.631467 -0.330586 19.810598
v 8.527946 -0.330586 19.810598
v 10.424423 -0.330586 17.764626
v 10.424423 -0.330586 15.718655
v 10.424423 -0.330586 13.672684
v 10.424423 -0.330586 11.626713
v 10.424423 -0.330586 9.580742
v 10.424423 -0.330586 7.534770
v 10.424423 -0.330586 3.442829
v 10.424423 -0.330586 1.396857
v 10.424423 -0.330586 -0.649114
v -10.436834 -0.330586 -0.649114
v -10.436834 -0.330586 1.396857
v -10.436834 -0.330586 3.442829
v -10.436834 -0.330586 5.488800
v -10.436834 -0.330586 7.534770
v -10.436834 -0.330586 9.580742
v -10.436834 -0.330586 11.626713
v -10.436834 -0.330586 13.672684
v -10.436834 -0.330586 15.718657
v -10.436834 -0.330586 17.764627
v -8.540356 -0.330586 -2.695085
v -6.643878 -0.330586 -2.695085
v -4.747400 -0.330586 -2.695085
v -2.850922 -0.330586 -2.695085
v -0.954444 -0.330586 -2.695085
v 0.942034 -0.330586 -2.695085
v 2.838512 -0.330586 -2.695085
v 4.734990 -0.330586 -2.695085
v 6.631467 -0.330586 -2.695085
v 8.527946 -0.330586 -2.695085
v -0.954444 1.669414 -2.695085
v -2.850922 1.669414 -2.695085
v -4.747400 1.669414 -2.695085
v 8.527946 -0.330586 7.534770
v 8.527946 -0.330586 9.580742
v 8.527946 -0.330586 11.626713
v 8.527946 -0.330586 13.672684
v 8.527946 -0.330586 15.718657
v 8.527946 -0.330586 17.764627
v 6.631467 -0.330586 1.396857
v 6.631467 -0.330586 3.442829
v 6.631467 -0.330586 5.488800
v 6.631467 -0.330586 7.534770
v 6.631467 -0.330586 9.580742
v 6.631467 -0.330586 11.626713
v 6.631467 -0.330586 13.672684
v 6.631467 -0.330586 15.718657
v 6.631467 0.669414 19.810598
v -8.540356 1.669414 -2.695085
v 4.734990 -0.330586 1.396857
v 4.734990 -0.330586 3.442829
v 4.734990 -0.330586 5.488800
v 4.734990 -0.330586 7.534770
v 4.734990 -0.330586 9.580742
v 4.734990 -0.330586 11.626713
v 4.734990 -0.330586 13.672684
v 4.734990 -0.330586 15.718657
v 4.734990 1.669414 19.810598
v 2.838512 -0.330586 1.396857
v 2.838512 -0.330586 3.442829
v 2.838512 -0.330586 5.488800
v 2.838512 -0.330586 7.534770
v 2.838512 -1.330586 9.580742
v 2.838512 1.669414 19.810598
v -10.436834 1.669414 1.396857
v 0.942034 -0.330586 1.396857
v 0.942034 -0.330586 3.442829
v 0.942034 -0.330586 5.488800
v 0.942034 -0.330586 7.534770
v 0.942034 -1.330586 9.580742
v 0.942034 -1.330586 15.718657
v 0.942034 1.669414 19.810598
v -10.436834 1.669414 -0.649114
v -0.954444 -0.330586 1.396857
v -0.954444 -0.330586 3.442829
v -0.954444 -0.330586 5.488800
v -0.954444 -0.330586 7.534770
v -0.954444 -1.330586 9.580742
v -0.954444 -1.330586 15.718657
v -0.954444 1.669414 19.810598
v -10.436834 1.669414 -2.695085
v -2.850922 -0.330586 1.396857
v -2.850922 -0.330586 3.442829
v -2.850922 -0.330586 5.488800
v -2.850922 -0.330586 7.534770
v -2.850922 -1.330586 11.626713
v -2.850922 -1.330586 15.718657
v -2.850922 1.669414 19.810598
v 10.424423 1.669414 1.396857
v -4.747400 -0.330586 1.396857
v -4.747400 -0.330586 3.442829
v -4.747400 -0.330586 5.488800
v -4.747400 -0.330586 7.534770
v -4.747400 -0.330586 9.580742
v -4.747400 -0.330586 11.626713
v -4.747400 -0.330586 13.672684
v -4.747400 -0.330586 15.718657
v -4.747400 1.669414 19.810598
v 10.424423 0.669414 3.442829
v -6.643878 -0.330586 1.396857
v -6.643878 -0.330586 3.442829
v -6.643878 -0.330586 7.534770
v -6.643878 -0.330586 9.580742
v -6.643878 -0.330586 11.626713
v -6.643878 -0.330586 13.672684
v -6.643878 -0.330586 15.718657
v -6.643878 0.669414 19.810598
v 8.527946 1.669414 -2.695085
v 10.424423 1.669414 -2.695085
v 10.424423 1.669414 -0.649114
v -8.540356 -0.330586 7.534770
v -8.540356 -0.330586 9.580742
v -8.540356 -0.330586 11.626713
v -8.540356 -0.330586 13.672684
v -8.540356 -0.330586 17.764627
v 10.424423 0.669414 -0.649114
v 10.424423 0.669414 -2.695085
v 8.527946 0.669414 -2.695085
v 10.424423 -0.330586 5.488800
v 10.424423 0.669414 1.396857
v -10.436834 0.669414 -2.695085
v -10.436834 0.669414 -0.649114
v -10.436834 0.669414 1.396857
v -10.436834 0.669414 3.442829
v -8.540356 0.669414 -2.695085
v -6.643878 0.669414 -2.695085
v -4.747400 0.669414 -2.695085
v -2.850922 0.669414 -2.695085
v -0.954444 0.669414 -2.695085
v 0.942034 0.669414 -2.695085
v 2.838512 0.669414 -2.695085
v 4.734990 0.669414 -2.695085
v 6.631467 0.669414 -2.695085
v 4.734990 2.669414 1.396857
v 8.527946 -0.330586 5.488800
v 6.631467 0.669414 1.396857
v 6.631467 0.669414 3.442829
v 4.734990 0.669414 1.396857
v 2.838512 0.669414 1.396857
v 4.734990 2.669414 -2.695085
v 0.942034 0.669414 1.396857
v 2.838512 2.669414 -2.695085
v -0.954444 0.669414 1.396857
v 0.942034 2.669414 -2.695085
v -2.850922 0.669414 1.396857
v -0.954444 2.669414 -2.695085
v -4.747400 0.669414 1.396857
v -2.850922 2.669414 -2.695085
v -6.643878 0.669414 1.396857
v -6.643878 -0.330586 5.488800
v -4.747400 2.669414 -2.695085
v -6.643878 1.669414 -2.695085
v -8.540356 0.669414 3.442829
v -8.540356 -0.330586 5.488800
v 0.942034 1.669414 -2.695085
v 2.838512 1.669414 -2.695085
v 4.734990 1.669414 -2.695085
v 6.631467 1.669414 -2.695085
v 8.527946 1.669414 -0.649114
v 8.527946 1.669414 1.396857
v 8.527946 0.669414 3.442829
v 6.631467 1.669414 -0.649114
v 6.631467 1.669414 1.396857
v 4.734990 1.669414 1.396857
v -2.850922 3.669414 -2.695085
v 2.838512 1.669414 1.396857
v -0.954444 3.669414 -2.695085
v 0.942034 1.669414 1.396857
v 0.942034 3.669414 -2.695085
v -0.954444 1.669414 1.396857
v -2.850922 1.669414 1.396857
v -4.747400 1.669414 1.396857
v -6.643878 0.669414 3.442829
v -8.540356 1.669414 -0.649114
v -8.540356 1.669414 1.396857
v 2.838512 2.669414 1.396857
v -0.954444 4.669415 -2.695085
v 0.942034 2.669414 1.396857
v 2.838512 3.669414 -2.695085
v -0.954444 2.669414 1.396857
v 0.942034 4.669415 -2.695085
v -2.850922 2.669414 1.396857
v -4.747400 2.669414 1.396857
v -6.643878 1.669414 -0.649114
v -6.643878 1.669414 1.396857
v 4.734990 2.669414 -0.649114
v 2.838512 3.669414 -0.649114
v 2.838512 3.669414 1.396857
v 0.942034 3.669414 1.396857
v -0.954444 3.669414 1.396857
v -2.850922 3.669414 -0.649114
v -4.747400 2.669414 -0.649114
v 0.942034 4.669415 -0.649114
v 0.942034 4.669415 1.396857
v -0.954444 4.669415 -0.649114
v -0.954444 4.669415 1.396857
v -2.850922 3.669414 1.396857
v -4.747400 0.669414 19.810598
v -2.850922 0.669414 19.810598
v -0.954444 0.669414 19.810598
v 0.942034 0.669414 19.810598
v 2.838512 0.669414 19.810598
v 4.734990 0.669414 19.810598
v 6.631467 0.669414 15.718657
v 4.734990 0.669414 15.718657
v 2.838512 0.669414 15.718657
v 0.942034 0.669414 15.718657
v -0.954444 0.669414 15.718657
v -2.850922 0.669414 15.718657
v -4.747400 0.669414 15.718657
v -6.643878 0.669414 15.718657
v -8.540356 -0.330586 15.718657
v 6.631467 0.669414 17.764627
v 2.838512 1.669414 15.718657
v 0.942034 3.669414 19.810598
v 0.942034 1.669414 15.718657
v -0.954444 3.669414 19.810598
v -0.954444 1.669414 15.718657
v -2.850922 1.669414 15.718657
v -4.747400 1.669414 15.718657
v -6.643878 0.669414 17.764627
v 2.838512 -1.330586 11.626713
v 2.838512 -1.330586 13.672684
v 2.838512 -1.330586 15.718657
v 0.942034 -2.330586 11.626713
v 0.942034 -3.330586 13.672684
v 0.942034 -3.330586 15.718657
v -0.954444 -2.330586 11.626713
v -0.954444 -3.330586 13.672684
v -0.954444 -3.330586 15.718657
v -2.850922 -1.330586 9.580742
v -2.850922 -1.330586 13.672684
v 0.942034 -1.330586 19.830303
v 0.942034 -3.330586 19.830303
v -0.954444 -1.330586 19.830303
v -0.954444 -3.330586 19.830303
v -2.850922 2.669414 19.810598
v -0.954444 2.669414 19.810598
v 0.942034 2.669414 19.810598
v 2.838512 2.669414 19.810598
v 4.734990 1.669414 17.764627
v 4.734990 1.669414 15.718657
v 0.942034 2.669414 15.718657
v -0.954444 2.669414 15.718657
v -2.850922 2.669414 17.764627
v -4.747400 1.669414 17.764627
v 2.838512 2.669414 17.764627
v 2.838512 2.669414 15.718657
v 0.942034 3.669414 17.764627
v 0.942034 3.669414 15.718657
v -0.954444 3.669414 17.764627
v -0.954444 3.669414 15.718657
v -2.850922 2.669414 15.718657
v -0.954444 4.669415 -5.695085
v 0.942034 4.669415 -5.695085
v 4.734990 4.669415 5.488800
v 4.734990 4.669415 7.534770
v 2.838512 4.669415 5.488800
v 2.838512 4.669415 7.534770
v -4.747400 2.669414 11.626713
v -4.747400 2.669414 13.672684
v -2.850922 2.669414 11.626713
v -2.850922 2.669414 13.672684
v 0.942034 -3.330586 21.583157
v -0.954444 -3.330586 21.583157
vn -0.0000 1.0000 -0.0000
vn -0.0000 -0.0000 1.0000
vn -0.0000 -0.0000 -1.0000
vn -1.0000 -0.0000 -0.0000
vn 1.0000 -0.0000 -0.0000
vn -0.2481 0.9410 0.2300
vn -0.4664 0.8846 -0.0000
vn -0.0000 0.8984 0.4391
vn 0.2481 0.9410 0.2300
vn 0.4664 0.8846 -0.0000
vn -0.6093 0.7703 0.1882
vn -0.7256 0.6881 -0.0000
vn 0.6093 0.7703 0.1882
vn 0.7256 0.6881 -0.0000
vn -0.0000 -1.0000 -0.0000
vt 0.090909 0.000000
vt 0.000000 0.000000
vt 1.000000 0.000000
vt 0.909091 0.000000
vt 0.545455 0.000000
vt 0.454545 0.000000
vt 0.818182 0.000000
vt 0.727273 0.000000
vt 0.818182 0.000000
vt 0.909091 0.000000
vt 0.545455 0.000000
vt 0.818182 0.000000
vt 0.181818 0.000000
vt 0.272727 0.000000
vt 0.636364 0.000000
vt 0.636364 0.000000
vt 0.363636 0.000000
vt 0.272727 0.000000
s 0
f 128/1/1 33/2/1 3/2/1 5/1/1
f 15/3/1 52/4/1 14/4/1 4/3/1
f 6/2/2 7/2/2 211/2/2 120/2/2
f 13/2/2 14/2/2 61/2/2
f 5/2/2 6/2/2 120/2/2
f 12/2/2 13/2/2 61/2/2 216/2/2
f 84/5/3 92/6/3 221/6/3 220/5/3
f 60/7/3 70/8/3 218/8/3 217/7/3
f 54/7/4 55/7/4 150/7/4
f 53/9/4 54/7/4 150/7/4 149/9/4
f 132/3/1 148/10/1 47/10/1 20/3/1
f 20/3/1 47/10/1 48/4/1 19/3/1
f 19/3/1 48/4/1 49/4/1 18/3/1
f 18/3/1 49/4/1 50/4/1 17/3/1
f 17/3/1 50/4/1 51/4/1 16/3/1
f 16/3/1 51/4/1 52/4/1 15/3/1
f 87/6/2 79/11/2 154/11/2 156/6/2
f 2/2/3 43/2/3 131/2/3 130/2/3
f 43/2/3 42/2/3 146/2/3 131/2/3
f 148/10/1 55/7/1 56/7/1 47/10/1
f 47/10/1 56/7/1 57/7/1 48/4/1
f 48/4/1 57/7/1 58/12/1 49/4/1
f 49/4/1 58/12/1 59/12/1 50/4/1
f 50/4/1 59/12/1 60/7/1 51/4/1
f 11/2/2 12/2/2 216/2/2 215/2/2
f 163/13/5 114/13/5 186/13/5
f 42/2/3 41/2/3 145/2/3 146/2/3
f 53/9/1 63/8/1 64/8/1 54/7/1
f 54/7/1 64/8/1 65/8/1 55/7/1
f 55/7/1 65/8/1 66/8/1 56/7/1
f 56/7/1 66/8/1 67/8/1 57/7/1
f 57/7/1 67/8/1 68/8/1 58/12/1
f 58/12/1 68/8/1 69/8/1 59/12/1
f 59/12/1 69/8/1 70/8/1 60/7/1
f 110/14/3 119/13/3 224/13/3 223/14/3
f 23/2/5 2/2/5 130/2/5 129/2/5
f 114/13/5 113/13/5 162/13/5 186/13/5
f 63/8/1 72/15/1 73/15/1 64/8/1
f 64/8/1 73/15/1 74/15/1 65/8/1
f 66/8/5 65/8/5 269/8/5 270/8/5
f 66/8/6 75/16/6 76/16/6 67/8/6
f 67/8/7 76/16/7 235/16/7 68/8/7
f 68/8/7 235/16/7 236/16/7 69/8/7
f 69/8/7 236/16/7 237/15/7 70/8/7
f 10/2/2 11/2/2 215/2/2 214/2/2
f 41/2/3 40/2/3 144/2/3 145/2/3
f 63/8/2 53/9/2 149/9/2 151/8/2
f 72/15/1 79/11/1 80/11/1 73/15/1
f 73/15/1 80/11/1 81/11/1 74/15/1
f 74/15/1 81/11/1 82/11/1 75/16/1
f 75/16/8 82/11/8 83/11/8 76/16/8
f 119/13/3 225/1/3 224/13/3
f 95/17/2 87/6/2 156/6/2 158/17/2
f 26/2/4 27/2/4 137/2/4
f 79/11/1 87/6/1 88/6/1 80/11/1
f 80/11/1 88/6/1 89/6/1 81/11/1
f 81/11/1 89/6/1 90/6/1 82/11/1
f 82/11/8 90/6/8 91/6/8 83/11/8
f 84/5/3 237/15/3 240/5/3
f 100/17/3 110/14/3 223/14/3 222/17/3
f 40/2/3 39/2/3 143/2/3 144/2/3
f 25/2/4 26/2/4 137/2/4 136/2/4
f 87/6/1 95/17/1 96/17/1 88/6/1
f 88/6/1 96/17/1 97/17/1 89/6/1
f 89/6/1 97/17/1 98/17/1 90/6/1
f 90/6/8 98/17/8 244/17/8 91/6/8
f 240/5/1 243/6/1 249/6/1 247/5/1
f 100/17/3 92/6/3 243/6/3
f 237/15/3 84/5/3 220/5/3 219/15/3
f 39/2/3 38/2/3 142/2/3 143/2/3
f 24/2/4 25/2/4 136/2/4 135/2/4
f 95/17/1 103/18/1 104/18/1 96/17/1
f 96/17/1 104/18/1 105/18/1 97/17/1
f 97/17/1 105/18/1 106/18/1 98/17/1
f 98/17/9 106/18/9 107/18/9 244/17/9
f 244/17/10 107/18/10 108/18/10 99/17/10
f 108/18/4 109/18/4 274/18/4 273/18/4
f 245/17/10 109/18/10 110/14/10 100/17/10
f 9/2/2 10/2/2 214/2/2 213/2/2
f 38/2/3 37/2/3 141/2/3 142/2/3
f 72/15/2 63/8/2 151/8/2 152/15/2
f 103/18/1 113/13/1 114/13/1 104/18/1
f 104/18/1 114/13/1 163/13/1 105/18/1
f 105/18/1 163/13/1 115/13/1 106/18/1
f 106/18/1 115/13/1 116/13/1 107/18/1
f 107/18/1 116/13/1 117/13/1 108/18/1
f 108/18/1 117/13/1 118/13/1 109/18/1
f 109/18/1 118/13/1 119/13/1 110/14/1
f 51/4/3 60/7/3 217/7/3
f 1/2/4 24/2/4 135/2/4 134/2/4
f 103/18/2 95/17/2 158/17/2 160/18/2
f 37/2/3 36/2/3 140/2/3 141/2/3
f 22/2/5 23/2/5 129/2/5 133/2/5
f 163/13/1 167/1/1 124/1/1 115/13/1
f 115/13/1 124/1/1 125/1/1 116/13/1
f 116/13/1 125/1/1 126/1/1 117/13/1
f 117/13/1 126/1/1 127/1/1 118/13/1
f 118/13/1 127/1/1 225/1/1 119/13/1
f 8/2/2 9/2/2 213/2/2 212/2/2
f 36/2/3 35/2/3 139/2/3 140/2/3
f 21/2/5 22/2/5 133/2/5 112/2/5
f 35/2/3 34/2/3 138/2/3 139/2/3
f 167/1/1 27/2/1 28/2/1 124/1/1
f 124/1/1 28/2/1 29/2/1 125/1/1
f 125/1/1 29/2/1 30/2/1 126/1/1
f 126/1/1 30/2/1 31/2/1 127/1/1
f 127/1/1 31/2/1 32/2/1 225/1/1
f 225/1/1 32/2/1 33/2/1 128/1/1
f 139/2/3 138/2/3 62/2/3 165/2/3
f 138/2/3 134/2/3 94/2/3 62/2/3
f 112/3/8 174/10/8 148/10/8 132/3/8
f 156/6/2 154/11/2 181/11/2 183/6/2
f 136/2/4 137/2/4 78/2/4
f 174/10/8 150/7/8 55/7/8 148/10/8
f 154/11/2 152/15/2 179/15/2 181/11/2
f 135/2/4 136/2/4 78/2/4 86/2/4
f 134/2/4 135/2/4 86/2/4 94/2/4
f 131/2/3 146/2/3 171/2/3 121/2/3
f 152/15/2 151/8/2 177/8/2 179/15/2
f 133/2/5 129/2/5 123/2/5 102/2/5
f 146/2/3 145/2/3 170/2/3 171/2/3
f 112/2/5 133/2/5 102/2/5
f 145/2/3 144/2/3 169/2/3 170/2/3
f 151/8/2 149/9/2 176/9/2 177/8/2
f 144/2/3 143/2/3 168/2/3 169/2/3
f 130/2/3 131/2/3 121/2/3 122/2/3
f 162/13/2 160/18/2 185/18/2 198/13/2
f 186/13/5 162/13/5 198/13/5
f 143/2/3 142/2/3 44/2/3 168/2/3
f 129/2/5 130/2/5 122/2/5 123/2/5
f 186/13/8 166/1/8 167/1/8 163/13/8
f 142/2/3 141/2/3 45/2/3 44/2/3
f 160/18/2 158/17/2 184/17/2 185/18/2
f 166/1/8 137/2/8 27/2/8 167/1/8
f 113/13/2 103/18/2 160/18/2 162/13/2
f 34/2/3 1/2/3 134/2/3 138/2/3
f 79/11/2 72/15/2 152/15/2 154/11/2
f 132/2/5 21/2/5 112/2/5
f 122/3/1 121/4/1 172/4/1 123/3/1
f 123/3/1 172/4/1 173/10/1 102/3/1
f 102/3/8 173/10/8 174/10/8 112/3/8
f 121/4/1 171/12/1 175/7/1 172/4/1
f 172/4/1 175/7/1 176/9/1 173/10/1
f 173/10/8 176/9/8 150/7/8 174/10/8
f 185/18/2 184/17/2 195/17/2 196/18/2
f 179/15/2 177/8/2 147/8/2 189/15/2
f 169/2/3 168/2/3 157/2/3 155/2/3
f 168/2/3 44/2/3 159/2/3 157/2/3
f 184/17/2 183/6/2 193/6/2 195/17/2
f 177/8/2 176/9/2 147/8/2
f 44/2/3 45/2/3 161/2/3 159/2/3
f 45/2/3 46/2/3 164/2/3 161/2/3
f 183/6/2 181/11/2 191/11/2 193/6/2
f 46/2/3 165/2/3 164/2/3
f 165/13/1 62/1/1 187/1/1 197/13/1
f 197/13/1 187/1/1 188/1/1 198/13/1
f 198/13/8 188/1/8 166/1/8 186/13/8
f 62/1/1 94/2/1 86/2/1 187/1/1
f 187/1/1 86/2/1 78/2/1 188/1/1
f 188/1/8 78/2/8 137/2/8 166/1/8
f 158/17/2 156/6/2 183/6/2 184/17/2
f 140/2/3 139/2/3 165/2/3 46/2/3
f 149/9/4 150/7/4 176/9/4
f 141/2/3 140/2/3 46/2/3 45/2/3
f 171/12/10 153/8/10 199/8/10 175/7/10
f 175/7/10 199/8/10 147/8/10 176/9/10
f 196/18/2 195/17/2 210/17/2
f 155/2/3 157/2/3 182/2/3 192/2/3
f 189/15/2 147/8/2 201/15/2
f 153/2/3 155/2/3 192/2/3
f 161/2/3 164/2/3 178/2/3
f 195/17/2 193/6/2 203/6/2 210/17/2
f 164/18/7 165/13/7 197/13/7 205/18/7
f 205/18/7 197/13/7 198/13/7 196/18/7
f 170/2/3 169/2/3 155/2/3 153/2/3
f 181/11/2 179/15/2 189/15/2 191/11/2
f 171/2/3 170/2/3 153/2/3
f 198/13/2 185/18/2 196/18/2
f 153/8/10 192/15/10 200/15/10 199/8/10
f 199/8/10 200/15/10 201/15/10 147/8/10
f 210/17/2 203/6/2 209/6/2
f 202/11/2 201/15/2 207/11/2
f 180/2/3 178/2/3 190/2/3
f 182/2/3 180/2/3 190/2/3 194/2/3
f 203/6/2 202/11/2 207/11/2 209/6/2
f 178/17/7 164/18/7 205/18/7 204/17/7
f 204/17/7 205/18/7 196/18/7 210/17/7
f 191/11/2 189/15/2 201/15/2 202/11/2
f 157/2/3 159/2/3 180/2/3 182/2/3
f 159/2/3 161/2/3 178/2/3 180/2/3
f 193/6/2 191/11/2 202/11/2 203/6/2
f 192/15/10 194/11/10 206/11/10 200/15/10
f 200/15/10 206/11/10 207/11/10 201/15/10
f 194/11/1 190/6/1 208/6/1 206/11/1
f 206/11/1 208/6/1 209/6/1 207/11/1
f 190/6/7 178/17/7 204/17/7 208/6/7
f 208/6/7 204/17/7 210/17/7 209/6/7
f 192/2/3 182/2/3 194/2/3
f 52/4/10 226/7/10 61/12/10 14/4/10
f 213/2/2 214/2/2 85/2/2 93/2/2
f 222/17/3 223/14/3 233/14/3 232/17/3
f 218/8/3 219/15/3 227/15/3 255/8/3
f 212/2/2 213/2/2 93/2/2 101/2/2
f 234/13/7 128/1/7 5/1/7 120/13/7
f 51/4/10 217/7/10 226/7/10 52/4/10
f 211/2/2 212/2/2 101/2/2 111/2/2
f 221/6/3 222/17/3 232/17/3 231/6/3
f 217/7/3 218/8/3 255/8/3
f 120/2/2 211/2/2 111/2/2
f 220/5/3 221/6/3 231/6/3 229/5/3
f 216/2/2 61/2/2 71/2/2
f 224/13/7 225/1/7 128/1/7 234/13/7
f 70/8/3 237/15/3 219/15/3 218/8/3
f 7/2/2 8/2/2 212/2/2 211/2/2
f 92/6/3 100/17/3 222/17/3 221/6/3
f 226/7/10 254/8/10 71/8/10 61/12/10
f 231/6/3 232/17/3 266/17/3 257/6/3
f 111/2/2 101/2/2 250/2/2
f 229/5/3 231/6/3 257/6/3 256/5/3
f 101/2/2 93/2/2 251/2/2 250/2/2
f 259/14/7 234/13/7 120/13/7 111/18/7
f 217/7/10 255/8/10 254/8/10 226/7/10
f 77/2/2 71/2/2 253/2/2
f 227/15/3 229/5/3 256/5/3 261/15/3
f 85/2/2 77/2/2 253/2/2 252/2/2
f 233/14/7 224/13/7 234/13/7 259/14/7
f 214/2/2 215/2/2 77/2/2 85/2/2
f 219/15/3 220/5/3 229/5/3 227/15/3
f 223/14/3 224/13/3 233/14/3
f 215/2/2 216/2/2 71/2/2 77/2/2
f 76/16/6 83/11/6 238/11/6 235/16/6
f 235/16/11 238/11/11 239/11/11 236/16/11
f 236/16/12 239/11/12 240/5/12 237/15/12
f 83/11/8 91/6/8 241/6/8 238/11/8
f 238/11/8 241/6/8 242/6/8 239/11/8
f 239/11/1 242/6/1 243/6/1 240/5/1
f 91/6/9 244/17/9 99/17/9 241/6/9
f 241/6/13 99/17/13 245/17/13 242/6/13
f 242/6/14 245/17/14 100/17/14 243/6/14
f 84/5/4 240/5/4 247/5/4 246/5/4
f 92/6/15 84/5/15 246/5/15 248/6/15
f 243/6/5 92/6/5 248/6/5 249/6/5
f 254/8/10 260/15/10 253/15/10 71/8/10
f 261/15/3 256/5/3 263/5/3
f 256/5/3 257/6/3 265/6/3 263/5/3
f 258/17/7 259/14/7 111/18/7 250/17/7
f 255/8/10 261/15/10 260/15/10 254/8/10
f 250/2/2 251/2/2 230/2/2
f 266/17/7 233/14/7 259/14/7 258/17/7
f 255/8/3 227/15/3 261/15/3
f 93/2/2 85/2/2 252/2/2 251/2/2
f 232/17/3 233/14/3 266/17/3
f 260/15/10 262/5/10 228/11/10 253/15/10
f 262/5/1 264/6/1 230/6/1 228/11/1
f 264/6/7 258/17/7 250/17/7 230/6/7
f 261/15/10 263/5/10 262/5/10 260/15/10
f 263/5/1 265/6/1 264/6/1 262/5/1
f 265/6/7 266/17/7 258/17/7 264/6/7
f 251/2/2 252/2/2 228/2/2 230/2/2
f 257/6/3 266/17/3 265/6/3
f 252/2/2 253/2/2 228/2/2
f 190/2/1 194/2/1 268/2/1 267/2/1
f 269/8/1 271/15/1 272/16/1 270/8/1
f 74/15/4 75/16/4 272/16/4 271/15/4
f 65/8/3 74/15/3 271/15/3 269/8/3
f 75/16/2 66/8/2 270/8/2 272/16/2
f 275/17/1 273/18/1 274/18/1 276/17/1
f 99/17/3 108/18/3 273/18/3 275/17/3
f 245/17/5 99/17/5 275/17/5 276/17/5
f 109/18/2 245/17/2 276/17/2 274/18/2
f 247/5/1 249/6/1 278/6/1 277/5/1
