# Blender 4.2.14 LTS
# www.blender.org
mtllib FloorLVL2.mtl
o Suelo
v -16.994848 -0.330586 31.502401
v 16.994848 -0.330586 31.502401
v -16.994848 -0.330586 -2.487295
v 16.994848 -0.330586 -2.487295
v -16.994848 -0.330586 0.602677
v -16.994848 -0.330586 3.692650
v -16.994848 -0.330586 6.782622
v -16.994848 -0.330586 9.872595
v -16.994848 -0.330586 12.962567
v -16.994848 -0.330586 16.052540
v -16.994848 -0.330586 19.142511
v -16.994848 -0.330586 22.232485
v -16.994848 -0.330586 25.322456
v -16.994848 -0.330586 28.412430
v -13.904876 -0.330586 31.502401
v -10.814903 -0.330586 31.502401
v -7.724931 -0.330586 31.502401
v -4.634958 -0.330586 31.502401
v -1.544986 -0.330586 31.502401
v 1.544986 -0.330586 31.502401
v 4.634959 -0.330586 31.502401
v 7.724931 -0.330586 31.502401
v 10.814903 -0.330586 31.502401
v 13.904876 -0.330586 31.502401
v 16.994848 -0.330586 28.412430
v 16.994848 -0.330586 25.322456
v 16.994848 -0.330586 22.232483
v 16.994848 -0.330586 19.142511
v 16.994848 -0.330586 16.052540
v 16.994848 -0.330586 12.962566
v 16.994848 -0.330586 9.872595
v 16.994848 -0.330586 6.782622
v 16.994848 -0.330586 3.692650
v 16.994848 -0.330586 0.602677
v 13.904876 -0.330586 -2.487295
v 10.814903 -0.330586 -2.487295
v 7.724931 -0.330586 -2.487295
v 4.634958 -0.330586 -2.487295
v 1.544986 -0.330586 -2.487295
v -1.544986 -0.330586 -2.487295
v -4.634959 -0.330586 -2.487295
v -7.724931 -0.330586 -2.487295
v -10.814903 -0.330586 -2.487295
v -13.904876 -0.330586 -2.487295
v -13.904876 -0.330586 28.412430
v -13.904876 -0.330586 25.322456
v -13.904876 -0.330586 22.232483
v -13.904876 -0.330586 19.142511
v -13.904876 -0.330586 16.052540
v -13.904876 -0.330586 12.962566
v -13.904876 -0.330586 9.872595
v -13.904876 -0.330586 6.782622
v -13.904876 -0.330586 3.692650
v -13.904876 -0.330586 0.602677
v -10.814903 -0.330586 28.412430
v -10.814903 -1.720159 25.322456
v -10.814903 -1.720159 22.232483
v -10.814903 -1.720159 19.142511
v -10.814903 -1.720159 16.052540
v -10.814903 -1.720159 12.962566
v -10.814903 -1.720159 9.872595
v -10.814903 -1.720159 6.782622
v -10.814903 -1.720159 3.692650
v -10.814903 -0.330586 0.602677
v -7.724931 -0.330586 28.412430
v -7.724931 -1.720159 25.322456
v -7.724931 -1.720159 22.232483
v -7.724931 -1.720159 19.142511
v -7.724931 -1.720159 16.052540
v -7.724931 -1.720159 12.962566
v -7.724931 -1.720159 9.872595
v -7.724931 -1.720159 6.782622
v -7.724931 -1.720159 3.692650
v -7.724931 -0.330586 0.602677
v -4.634958 -0.330586 28.412430
v -4.634958 -1.720159 25.322456
v -4.634958 -1.720159 22.232483
v -4.634958 -3.330586 19.142511
v -4.634958 -3.330586 16.052540
v -4.634958 -3.330586 12.962566
v -4.634958 -3.330586 9.872595
v -4.634958 -1.720159 6.782622
v -4.634958 -1.720159 3.692650
v -4.634958 -0.330586 0.602677
v -1.544986 -0.330586 28.412430
v -1.544986 -1.720159 25.322456
v -1.544986 -1.720159 22.232483
v -1.544986 -3.330586 19.142511
v -1.544986 -3.330586 16.052540
v -1.544986 -3.330586 12.962566
v -1.544986 -3.330586 9.872595
v -1.544986 -1.720159 6.782622
v -1.544986 -1.720159 3.692650
v -1.544986 -0.330586 0.602677
v 1.544986 -0.330586 28.412430
v 1.544986 -1.720159 25.322456
v 1.544986 -1.720159 22.232483
v 1.544986 -3.330586 19.142511
v 1.544986 -3.330586 16.052540
v 1.544986 -3.330586 12.962566
v 1.544986 -3.330586 9.872595
v 1.544986 -1.720159 6.782622
v 1.544986 -1.720159 3.692650
v 1.544986 -0.330586 0.602677
v 4.634959 -0.330586 28.412430
v 4.634959 -1.720159 25.322456
v 4.634959 -1.720159 22.232483
v 4.634959 -3.330586 19.142511
v 4.634959 -3.330586 16.052540
v 4.634959 -3.330586 12.962566
v 4.634959 -3.330586 9.872595
v 4.634959 -1.720159 6.782622
v 4.634959 -1.720159 3.692650
v 4.634958 -0.330586 0.602677
v 7.724931 -0.330586 28.412430
v 7.724931 -1.720159 25.322456
v 7.724931 -1.720159 22.232483
v 7.724931 -1.720159 19.142511
v 7.724931 -1.720159 16.052540
v 7.724931 -1.720159 12.962566
v 7.724931 -1.720159 9.872595
v 7.724931 -1.720159 6.782622
v 7.724931 -1.720159 3.692650
v 7.724931 -0.330586 0.602677
v 10.814903 -0.330586 28.412430
v 10.814903 -1.720159 25.322456
v 10.814903 -1.720159 22.232483
v 10.814903 -1.720159 19.142511
v 10.814903 -1.720159 16.052540
v 10.814903 -1.720159 12.962566
v 10.814903 -1.720159 9.872595
v 10.814903 -1.720159 6.782622
v 10.814903 -1.720159 3.692650
v 10.814903 -0.330586 0.602677
v 13.904876 -0.330586 28.412430
v 13.904876 -0.330586 25.322456
v 13.904876 -0.330586 22.232483
v 13.904876 -0.330586 19.142511
v 13.904876 -0.330586 16.052540
v 13.904876 -0.330586 12.962566
v 13.904876 -0.330586 9.872595
v 13.904876 -0.330586 6.782622
v 13.904876 -0.330586 3.692650
v 13.904876 -0.330586 0.602677
v -1.078804 4.669415 15.586356
v -1.078804 4.669415 13.428749
v 1.078804 4.669415 15.586356
v 1.078804 4.669415 13.428749
v -13.515751 4.669415 28.023304
v -13.515751 4.669415 25.711582
v -13.515751 4.669415 3.303526
v -13.515751 4.669415 0.991802
v -11.204027 4.669415 28.023304
v -11.204027 4.669415 25.711582
v -11.204027 4.669415 3.303526
v -11.204027 4.669415 0.991802
v 11.204028 4.669415 28.023304
v 11.204028 4.669415 25.711582
v 11.204028 4.669415 3.303526
v 11.204028 4.669415 0.991802
v 13.515752 4.669415 28.023304
v 13.515752 4.669415 25.711582
v 13.515752 4.669415 3.303526
v 13.515752 4.669415 0.991802
v -1.029990 -0.330586 31.502401
v 1.029991 -0.330586 31.502401
v -1.029990 -0.330586 34.502403
v 1.029991 -0.330586 34.502403
v 0.978491 -0.330586 -2.487295
v -0.978492 -0.330586 -2.487295
v 0.978491 -0.330586 -5.487295
v -0.978492 -0.330586 -5.487295
vn -0.0000 1.0000 -0.0000
vn -0.0000 0.0776 0.9970
vn 0.4101 0.9120 -0.0000
vn -0.9975 0.0682 -0.0175
vn -0.0000 0.9120 -0.4101
vn -0.0000 0.9120 0.4101
vn 0.2445 0.9383 -0.2445
vn 0.4622 0.8868 -0.0000
vn 0.2445 0.9383 0.2445
vn -0.0000 0.8868 -0.4622
vn -0.0000 0.8868 0.4622
vn -0.0000 0.0582 0.9983
vn -0.2445 0.9383 -0.2445
vn -0.4622 0.8868 -0.0000
vn -0.2445 0.9383 0.2445
vn -0.0175 0.0682 -0.9975
vn -0.4101 0.9120 -0.0000
vn -0.0175 0.0682 0.9975
vn -0.9983 0.0582 -0.0000
vn 0.9983 0.0582 -0.0000
vn -0.0000 0.0582 -0.9983
vn -0.0000 0.0776 -0.9970
vn -0.9975 0.0682 0.0175
vn -0.9970 0.0776 -0.0000
vn 0.0175 0.0682 0.9975
vn 0.0175 0.0682 -0.9975
vn 0.9970 0.0776 -0.0000
vn 0.9975 0.0682 -0.0175
vn 0.9975 0.0682 0.0175
vt 0.909091 0.909091
vt 1.000000 0.909091
vt 1.000000 1.000000
vt 0.909091 1.000000
vt 0.000000 0.909091
vt 0.090909 0.909091
vt 0.090909 1.000000
vt 0.000000 1.000000
vt 0.181818 0.909091
vt 0.181818 1.000000
vt 0.272727 0.909091
vt 0.272727 1.000000
vt 0.363636 0.909091
vt 0.363636 1.000000
vt 0.454545 0.909091
vt 0.454545 1.000000
vt 0.545455 0.909091
vt 0.545455 1.000000
vt 0.515152 1.000000
vt 0.484848 1.000000
vt 0.636364 0.909091
vt 0.636364 1.000000
vt 0.727273 0.909091
vt 0.727273 1.000000
vt 0.818182 0.909091
vt 0.818182 1.000000
vt 0.000000 0.000000
vt 0.090909 0.000000
vt 0.090909 0.090909
vt 0.000000 0.090909
vt 0.090909 0.181818
vt 0.000000 0.181818
vt 0.090909 0.272727
vt 0.000000 0.272727
vt 0.090909 0.363636
vt 0.000000 0.363636
vt 0.090909 0.454545
vt 0.000000 0.454545
vt 0.090909 0.545455
vt 0.000000 0.545455
vt 0.090909 0.636364
vt 0.000000 0.636364
vt 0.090909 0.727273
vt 0.000000 0.727273
vt 0.090909 0.818182
vt 0.000000 0.818182
vt 0.181818 0.000000
vt 0.181818 0.090909
vt 0.181818 0.181818
vt 0.181818 0.272727
vt 0.181818 0.363636
vt 0.181818 0.454545
vt 0.181818 0.545455
vt 0.181818 0.636364
vt 0.181818 0.727273
vt 0.181818 0.818182
vt 0.818182 0.181818
vt 0.818182 0.090909
vt 0.272727 0.000000
vt 0.272727 0.090909
vt 0.272727 0.181818
vt 0.272727 0.272727
vt 0.272727 0.363636
vt 0.272727 0.454545
vt 0.272727 0.545455
vt 0.272727 0.636364
vt 0.272727 0.727273
vt 0.272727 0.818182
vt 0.363636 0.000000
vt 0.363636 0.090909
vt 0.363636 0.181818
vt 0.363636 0.272727
vt 0.363636 0.363636
vt 0.363636 0.454545
vt 0.363636 0.545455
vt 0.363636 0.636364
vt 0.363636 0.727273
vt 0.363636 0.818182
vt 0.454545 0.000000
vt 0.454545 0.090909
vt 0.454545 0.181818
vt 0.454545 0.272727
vt 0.454545 0.363636
vt 0.454545 0.454545
vt 0.454545 0.545455
vt 0.454545 0.636364
vt 0.454545 0.727273
vt 0.454545 0.818182
vt 0.484848 0.000000
vt 0.515152 0.000000
vt 0.545455 0.000000
vt 0.545455 0.090909
vt 0.545455 0.181818
vt 0.545455 0.272727
vt 0.545455 0.363636
vt 0.545455 0.454545
vt 0.545455 0.545455
vt 0.545455 0.636364
vt 0.545455 0.727273
vt 0.545455 0.818182
vt 0.636364 0.000000
vt 0.636364 0.090909
vt 0.636364 0.181818
vt 0.636364 0.272727
vt 0.636364 0.363636
vt 0.636364 0.454545
vt 0.636364 0.545455
vt 0.636364 0.636364
vt 0.636364 0.727273
vt 0.636364 0.818182
vt 0.727273 0.000000
vt 0.727273 0.090909
vt 0.727273 0.181818
vt 0.727273 0.272727
vt 0.727273 0.363636
vt 0.727273 0.454545
vt 0.727273 0.545455
vt 0.727273 0.636364
vt 0.727273 0.727273
vt 0.727273 0.818182
vt 0.818182 0.000000
vt 0.818182 0.272727
vt 0.818182 0.363636
vt 0.818182 0.454545
vt 0.818182 0.545455
vt 0.818182 0.636364
vt 0.818182 0.727273
vt 0.818182 0.818182
vt 0.909091 0.000000
vt 0.909091 0.090909
vt 0.909091 0.181818
vt 0.909091 0.272727
vt 0.909091 0.363636
vt 0.909091 0.454545
vt 0.909091 0.545455
vt 0.909091 0.636364
vt 0.909091 0.727273
vt 0.909091 0.818182
vt 1.000000 0.000000
vt 1.000000 0.090909
vt 1.000000 0.181818
vt 1.000000 0.272727
vt 1.000000 0.363636
vt 1.000000 0.454545
vt 1.000000 0.545455
vt 1.000000 0.636364
vt 1.000000 0.727273
vt 1.000000 0.818182
s 0
f 144/1/1 34/2/1 4/3/1 35/4/1
f 5/5/1 54/6/1 44/7/1 3/8/1
f 54/6/1 64/9/1 43/10/1 44/7/1
f 64/9/1 74/11/1 42/12/1 43/10/1
f 74/11/1 84/13/1 41/14/1 42/12/1
f 84/13/1 94/15/1 40/16/1 41/14/1
f 94/15/1 104/17/1 39/18/1 169/19/1 170/20/1 40/16/1
f 104/17/1 114/21/1 38/22/1 39/18/1
f 114/21/1 124/23/1 37/24/1 38/22/1
f 124/23/1 134/25/1 36/26/1 37/24/1
f 134/25/1 144/1/1 35/4/1 36/26/1
f 1/27/1 15/28/1 45/29/1 14/30/1
f 14/30/1 45/29/1 46/31/1 13/32/1
f 13/32/1 46/31/1 47/33/1 12/34/1
f 12/34/1 47/33/1 48/35/1 11/36/1
f 11/36/1 48/35/1 49/37/1 10/38/1
f 10/38/1 49/37/1 50/39/1 9/40/1
f 9/40/1 50/39/1 51/41/1 8/42/1
f 8/42/1 51/41/1 52/43/1 7/44/1
f 7/44/1 52/43/1 53/45/1 6/46/1
f 6/46/1 53/45/1 54/6/1 5/5/1
f 15/28/1 16/47/1 55/48/1 45/29/1
f 45/29/2 55/48/2 153/48/2 149/29/2
f 46/31/3 56/49/3 57/50/3 47/33/3
f 47/33/3 57/50/3 58/51/3 48/35/3
f 48/35/3 58/51/3 59/52/3 49/37/3
f 49/37/3 59/52/3 60/53/3 50/39/3
f 50/39/3 60/53/3 61/54/3 51/41/3
f 51/41/3 61/54/3 62/55/3 52/43/3
f 52/43/3 62/55/3 63/56/3 53/45/3
f 126/57/4 125/58/4 157/58/4 158/57/4
f 16/47/1 17/59/1 65/60/1 55/48/1
f 55/48/5 65/60/5 66/61/5 56/49/5
f 56/49/1 66/61/1 67/62/1 57/50/1
f 57/50/1 67/62/1 68/63/1 58/51/1
f 58/51/1 68/63/1 69/64/1 59/52/1
f 59/52/1 69/64/1 70/65/1 60/53/1
f 60/53/1 70/65/1 71/66/1 61/54/1
f 61/54/1 71/66/1 72/67/1 62/55/1
f 62/55/1 72/67/1 73/68/1 63/56/1
f 63/56/6 73/68/6 74/11/6 64/9/6
f 17/59/1 18/69/1 75/70/1 65/60/1
f 65/60/5 75/70/5 76/71/5 66/61/5
f 66/61/1 76/71/1 77/72/1 67/62/1
f 67/62/7 77/72/7 78/73/7 68/63/7
f 68/63/8 78/73/8 79/74/8 69/64/8
f 69/64/8 79/74/8 80/75/8 70/65/8
f 70/65/8 80/75/8 81/76/8 71/66/8
f 71/66/9 81/76/9 82/77/9 72/67/9
f 72/67/1 82/77/1 83/78/1 73/68/1
f 73/68/6 83/78/6 84/13/6 74/11/6
f 18/69/1 19/79/1 85/80/1 75/70/1
f 75/70/5 85/80/5 86/81/5 76/71/5
f 76/71/1 86/81/1 87/82/1 77/72/1
f 77/72/10 87/82/10 88/83/10 78/73/10
f 78/73/1 88/83/1 89/84/1 79/74/1
f 79/74/1 89/84/1 90/85/1 80/75/1
f 80/75/1 90/85/1 91/86/1 81/76/1
f 81/76/11 91/86/11 92/87/11 82/77/11
f 82/77/1 92/87/1 93/88/1 83/78/1
f 83/78/6 93/88/6 94/15/6 84/13/6
f 19/79/1 165/89/1 166/90/1 20/91/1 95/92/1 85/80/1
f 85/80/5 95/92/5 96/93/5 86/81/5
f 86/81/1 96/93/1 97/94/1 87/82/1
f 87/82/10 97/94/10 98/95/10 88/83/10
f 88/83/1 98/95/1 99/96/1 89/84/1
f 89/84/12 99/96/12 147/96/12 145/84/12
f 90/85/1 100/97/1 101/98/1 91/86/1
f 91/86/11 101/98/11 102/99/11 92/87/11
f 92/87/1 102/99/1 103/100/1 93/88/1
f 93/88/6 103/100/6 104/17/6 94/15/6
f 20/91/1 21/101/1 105/102/1 95/92/1
f 95/92/5 105/102/5 106/103/5 96/93/5
f 96/93/1 106/103/1 107/104/1 97/94/1
f 97/94/10 107/104/10 108/105/10 98/95/10
f 98/95/1 108/105/1 109/106/1 99/96/1
f 99/96/1 109/106/1 110/107/1 100/97/1
f 100/97/1 110/107/1 111/108/1 101/98/1
f 101/98/11 111/108/11 112/109/11 102/99/11
f 102/99/1 112/109/1 113/110/1 103/100/1
f 103/100/6 113/110/6 114/21/6 104/17/6
f 21/101/1 22/111/1 115/112/1 105/102/1
f 105/102/5 115/112/5 116/113/5 106/103/5
f 106/103/1 116/113/1 117/114/1 107/104/1
f 107/104/13 117/114/13 118/115/13 108/105/13
f 108/105/14 118/115/14 119/116/14 109/106/14
f 109/106/14 119/116/14 120/117/14 110/107/14
f 110/107/14 120/117/14 121/118/14 111/108/14
f 111/108/15 121/118/15 122/119/15 112/109/15
f 112/109/1 122/119/1 123/120/1 113/110/1
f 113/110/6 123/120/6 124/23/6 114/21/6
f 22/111/1 23/121/1 125/58/1 115/112/1
f 115/112/5 125/58/5 126/57/5 116/113/5
f 116/113/1 126/57/1 127/122/1 117/114/1
f 117/114/1 127/122/1 128/123/1 118/115/1
f 118/115/1 128/123/1 129/124/1 119/116/1
f 119/116/1 129/124/1 130/125/1 120/117/1
f 120/117/1 130/125/1 131/126/1 121/118/1
f 121/118/1 131/126/1 132/127/1 122/119/1
f 122/119/1 132/127/1 133/128/1 123/120/1
f 123/120/6 133/128/6 134/25/6 124/23/6
f 23/121/1 24/129/1 135/130/1 125/58/1
f 136/131/16 126/57/16 158/57/16 162/131/16
f 126/57/17 136/131/17 137/132/17 127/122/17
f 127/122/17 137/132/17 138/133/17 128/123/17
f 128/123/17 138/133/17 139/134/17 129/124/17
f 129/124/17 139/134/17 140/135/17 130/125/17
f 130/125/17 140/135/17 141/136/17 131/126/17
f 131/126/17 141/136/17 142/137/17 132/127/17
f 132/127/17 142/137/17 143/138/17 133/128/17
f 133/128/18 143/138/18 163/138/18 159/128/18
f 24/129/1 2/139/1 25/140/1 135/130/1
f 135/130/1 25/140/1 26/141/1 136/131/1
f 136/131/1 26/141/1 27/142/1 137/132/1
f 137/132/1 27/142/1 28/143/1 138/133/1
f 138/133/1 28/143/1 29/144/1 139/134/1
f 139/134/1 29/144/1 30/145/1 140/135/1
f 140/135/1 30/145/1 31/146/1 141/136/1
f 141/136/1 31/146/1 32/147/1 142/137/1
f 142/137/1 32/147/1 33/148/1 143/138/1
f 143/138/1 33/148/1 34/2/1 144/1/1
f 145/84/1 147/96/1 148/97/1 146/85/1
f 90/85/19 89/84/19 145/84/19 146/85/19
f 99/96/20 100/97/20 148/97/20 147/96/20
f 100/97/21 90/85/21 146/85/21 148/97/21
f 149/29/1 153/48/1 154/49/1 150/31/1
f 151/45/1 155/56/1 156/9/1 152/6/1
f 157/58/1 161/130/1 162/131/1 158/57/1
f 159/128/1 163/138/1 164/1/1 160/25/1
f 144/1/22 134/25/22 160/25/22 164/1/22
f 134/25/23 133/128/23 159/128/23 160/25/23
f 46/31/24 45/29/24 149/29/24 150/31/24
f 53/45/25 63/56/25 155/56/25 151/45/25
f 54/6/24 53/45/24 151/45/24 152/6/24
f 56/49/26 46/31/26 150/31/26 154/49/26
f 64/9/22 54/6/22 152/6/22 156/9/22
f 135/130/27 136/131/27 162/131/27 161/130/27
f 143/138/27 144/1/27 164/1/27 163/138/27
f 55/48/28 56/49/28 154/49/28 153/48/28
f 63/56/29 64/9/29 156/9/29 155/56/29
f 125/58/2 135/130/2 161/130/2 157/58/2
f 166/90/1 165/89/1 167/89/1 168/90/1
f 170/20/1 169/19/1 171/19/1 172/20/1
