# Blender 4.2.10 LTS
# www.blender.org
mtllib FloorLVL1.mtl
o Suelo
v -1.998950 -0.330807 -2.497561
v 1.998950 -0.330807 -2.497561
v -1.000000 -0.330807 -5.456350
v 1.000000 -0.330807 -5.456350
v -5.980931 -0.330807 1.981266
v 5.980931 -0.330807 1.981266
v -5.980931 -0.330807 8.029604
v 5.980931 -0.330807 8.029604
v -1.985336 2.665870 12.996983
v 1.985336 2.665870 12.996983
v -0.999810 2.665870 16.995428
v 0.999810 2.665870 16.995428
v -1.993644 -0.330807 1.981266
v 1.993644 -0.330807 1.981266
v -1.993644 -0.330807 8.029604
v 1.993644 -0.330807 8.029604
v -1.022033 -0.330807 -2.497561
v 1.022033 -0.330807 -2.497561
v 1.985336 2.665870 7.996207
v -1.985336 2.665870 7.996207
v -8.023272 2.665870 14.989468
v -8.009568 2.665870 12.996983
v 8.093850 2.665870 14.989468
v 8.080146 2.665870 12.996983
v -8.009568 2.665870 7.990917
v 8.080146 2.665870 7.990917
v -5.987461 2.665870 7.996207
v -5.999296 2.665870 12.996983
v 5.950239 2.665870 12.996983
v 5.987594 2.665870 7.996207
v -8.009568 2.665870 1.985844
v 8.080146 2.665870 1.985844
v -5.987461 2.665870 1.985844
v 5.987594 2.665870 1.985844
v 5.702064 2.665870 14.989468
v 1.030029 2.665870 14.989468
v -1.030029 2.665870 14.989468
v -5.759964 2.665870 14.989468
vn -0.0000 1.0000 -0.0000
vn -0.0000 0.8563 -0.5166
vt 1.000000 0.000000
vt 0.666667 0.000000
vt 0.333333 0.000000
vt 0.000000 0.000000
vt 1.000000 1.000000
vt 0.000000 1.000000
vt 0.832772 0.000000
vt 0.167228 0.000000
vt 0.083824 0.000000
vt 0.333333 0.000000
vt 0.913247 0.000000
s 0
f 6/1/1 14/2/1 13/3/1 5/4/1 7/4/1 15/3/1 16/2/1 8/1/1
f 2/1/1 18/2/1 17/3/1 1/4/1 13/3/1 14/2/1
f 16/2/2 15/3/2 9/3/2 10/1/2
f 17/3/1 18/2/1 4/5/1 3/6/1
f 36/7/1 37/8/1 11/4/1 12/1/1
f 38/9/1 28/10/1 22/3/1 21/4/1
f 28/10/1 9/3/1 20/3/1 27/3/1
f 29/2/1 24/2/1 26/2/1 30/2/1
f 22/3/1 28/10/1 27/3/1 25/3/1
f 37/8/1 9/3/1 28/10/1 38/9/1
f 10/2/1 29/2/1 30/2/1 19/2/1
f 30/2/1 26/2/1 32/2/1 34/2/1
f 25/3/1 27/3/1 33/3/1 31/3/1
f 10/2/1 9/3/1 37/8/1 36/7/1
f 10/2/1 36/7/1 35/11/1 29/2/1
f 29/2/1 35/11/1 23/1/1 24/2/1
