# Blender 4.2.14 LTS
# www.blender.org
mtllib FloorLVL3.mtl
o Suelo
v -11.420144 -0.330586 20.336102
v 11.420144 -0.330586 20.336102
v -11.420144 -0.330586 -2.504186
v 11.420144 -0.330586 -2.504186
v -11.420144 -0.330586 -0.427795
v -11.420144 -0.330586 1.648594
v -11.420144 -0.330586 3.724984
v -11.420144 -0.330586 5.801374
v -11.420144 -0.330586 7.877764
v -11.420144 -0.330586 9.954153
v -11.420144 -0.330586 12.030543
v -11.420144 -0.330586 14.106934
v -11.420144 -0.330586 16.183323
v -11.420144 -0.330586 18.259712
v -9.343754 -0.330586 20.336102
v -7.267365 -0.330586 20.336102
v -5.190974 -0.330586 20.336102
v -3.114584 -0.330586 20.336102
v 1.038195 -0.330586 20.336102
v 3.114585 -0.330586 20.336102
v 5.190975 -0.330586 20.336102
v 7.267365 -0.330586 20.336102
v 9.343754 -0.330586 20.336102
v 11.420144 -0.330586 18.259712
v 11.420144 -0.330586 16.183323
v 11.420144 -0.330586 14.106933
v 11.420144 -0.330586 12.030542
v 11.420144 -0.330586 9.954153
v 11.420144 -0.330586 7.877763
v 11.420144 -0.330586 5.801373
v 11.420144 -0.330586 3.724984
v 11.420144 -0.330586 1.648594
v 11.420144 -0.330586 -0.427795
v 9.343754 -0.330586 -2.504186
v 7.267365 -0.330586 -2.504186
v 5.190974 -0.330586 -2.504186
v 3.114584 -0.330586 -2.504186
v 1.038195 -0.330586 -2.504186
v -1.038195 -0.330586 -2.504186
v -3.114585 -0.330586 -2.504186
v -5.190975 -0.330586 -2.504186
v -7.267365 -0.330586 -2.504186
v -9.343754 -0.330586 -2.504186
v 11.401661 1.669320 16.183323
v 11.401661 1.669320 18.259712
v 7.248881 1.669320 20.336102
v 5.172492 0.669320 20.336102
v -5.172492 0.669320 20.336102
v -7.248881 1.669320 20.336102
v -9.325272 1.669320 20.336102
v -11.401661 1.669320 16.183323
v -11.401661 1.669320 14.106934
v -11.401661 1.669320 12.030543
v -11.401661 1.669320 9.954153
v -7.267365 -0.336523 16.183323
v -7.267365 -0.336523 14.106933
v -7.267365 -0.336523 12.030542
v -7.267365 -0.336523 9.954153
v -7.267365 -0.336523 7.877763
v -7.267365 -0.336523 5.801373
v -7.267365 -0.336523 3.724984
v -7.267365 -0.336523 1.648594
v -11.401661 1.669320 7.877764
v -5.190974 -0.330586 18.259712
v -5.190974 -0.336523 16.183323
v -5.190974 -0.336523 14.106933
v -5.190974 -0.336523 12.030542
v -5.190974 -0.336523 9.954153
v -5.190974 -0.336523 7.877763
v -5.190974 -0.336523 5.801373
v -5.190974 -0.336523 3.724984
v -5.190974 -0.336523 1.648594
v -5.190974 -0.330586 -0.427795
v -3.114584 -0.330586 18.259712
v -3.114584 -0.336523 16.183323
v -3.114584 -0.336523 14.106933
v -3.114584 -0.984899 12.030542
v -3.114584 -0.984899 9.954153
v -3.114584 -0.984899 7.877763
v -3.114584 -0.984899 5.801373
v -3.114584 -0.336523 3.724984
v -3.114584 -0.336523 1.648594
v -3.114584 -0.330586 -0.427795
v -1.038195 -0.330586 18.259712
v -1.038195 -0.336523 16.183323
v -1.038195 -0.336523 14.106933
v -1.038195 -0.984899 12.030542
v -1.038195 -1.495783 9.954153
v -1.038195 -1.495783 7.877763
v -1.038195 -0.984899 5.801373
v -1.038195 -0.336523 3.724984
v -1.038195 -0.336523 1.648594
v -1.038195 -0.330586 -0.427795
v 1.038195 -0.330586 18.259712
v 1.038195 -0.336523 16.183323
v 1.038195 -0.336523 14.106933
v 1.038195 -0.984899 12.030542
v 1.038195 -1.495783 9.954153
v 1.038195 -1.495783 7.877763
v 1.038195 -0.984899 5.801373
v 1.038195 -0.336523 3.724984
v 1.038195 -0.336523 1.648594
v 1.038195 -0.330586 -0.427795
v 3.114585 -0.330586 18.259712
v 3.114585 -0.336523 16.183323
v 3.114585 -0.336523 14.106933
v 3.114585 -0.984899 12.030542
v 3.114585 -0.984899 9.954153
v 3.114585 -0.984899 7.877763
v 3.114585 -0.984899 5.801373
v 3.114585 -0.336523 3.724984
v 3.114585 -0.336523 1.648594
v 3.114584 -0.330586 -0.427795
v 5.190975 -0.330586 18.259712
v 5.190975 -0.336523 16.183323
v 5.190975 -0.336523 14.106933
v 5.190975 -0.336523 12.030542
v 5.190975 -0.336523 9.954153
v 5.190975 -0.336523 7.877763
v 5.190975 -0.336523 5.801373
v 5.190975 -0.336523 3.724984
v 5.190975 -0.336523 1.648594
v 5.190974 -0.330586 -0.427795
v -11.401661 1.669320 5.801374
v 7.267365 -0.336523 16.183323
v 7.267365 -0.336523 14.106933
v 7.267365 -0.336523 12.030542
v 7.267365 -0.336523 9.954153
v 7.267365 -0.336523 7.877763
v 7.267365 -0.336523 5.801373
v 7.267365 -0.336523 3.724984
v 7.267365 -0.336523 1.648594
v -11.401661 1.669320 3.724984
v -11.401661 1.669320 1.648594
v -11.401661 1.669320 -0.427795
v -11.401661 1.669320 -2.504186
v -9.325272 1.669320 -2.504186
v 11.401661 1.669320 -2.504186
v 11.401661 1.669320 -0.427795
v 11.401661 1.669320 20.336102
v 9.325272 1.669320 20.336102
v -11.401661 1.669320 20.336102
v -11.401661 1.669320 18.259712
v -1.038195 -0.330586 20.336102
v 1.038195 -0.330586 -5.435920
v -1.038195 -0.330586 -5.435920
v 1.038195 -0.330586 22.490803
v -1.038195 -0.330586 22.490803
v -11.411244 0.669371 18.259712
v -11.411244 0.669371 20.336102
v 9.334855 0.669371 20.336102
v 11.411244 0.669371 20.336102
v 11.411244 0.669371 -0.427795
v 11.411244 0.669371 -2.504186
v -9.334855 0.669371 -2.504186
v -11.411244 0.669371 -2.504186
v -11.411244 0.669371 -0.427795
v -11.411244 0.669371 1.648594
v -11.411244 0.669371 3.724984
v -11.411244 0.669371 5.801374
v -11.411244 0.669371 7.877764
v -11.411244 0.669371 9.954153
v -11.411244 0.669371 12.030543
v -11.411244 0.669371 14.106934
v -11.411244 0.669371 16.183323
v -9.334855 0.669371 20.336102
v -7.258465 0.669371 20.336102
v -5.182076 0.669371 20.336102
v -3.105685 -0.330629 20.336102
v 3.105686 -0.330629 20.336102
v 5.182076 0.669371 20.336102
v 7.258465 0.669371 20.336102
v 11.411244 0.669371 18.259712
v 11.411244 0.669371 16.183323
v 11.411244 0.669371 14.106933
v 11.411244 0.669371 12.030542
v 11.411244 0.669371 9.954153
v 11.411244 0.669371 7.877763
v 11.411244 0.669371 5.801373
v 11.411244 0.669371 3.724984
v 11.411244 0.669371 1.648594
v 9.334855 0.669371 -2.504186
v 7.258465 0.669371 -2.504186
v 5.182076 0.669371 -2.504186
v 3.105685 -0.330629 -2.504186
v -3.105686 -0.330629 -2.504186
v -5.182076 0.669371 -2.504186
v -7.258465 0.669371 -2.504186
v 11.390335 2.669250 12.030542
v 11.390335 2.669250 14.106933
v 11.390335 2.669250 16.183323
v 11.390335 2.669250 18.259712
v 7.237556 1.669250 20.336102
v -7.237556 1.669250 20.336102
v -9.313945 2.669250 20.336102
v -11.390335 2.669250 16.183323
v -11.390335 2.669250 14.106934
v -11.390335 2.669250 12.030543
v -11.390335 2.669250 20.336102
v -11.390335 2.669250 18.259712
v -7.258465 0.663433 16.183323
v -7.258465 0.663433 14.106933
v -7.258465 0.663433 12.030542
v -7.258465 0.663433 9.954153
v -7.258465 0.663433 7.877763
v -7.258465 0.663433 5.801373
v -7.258465 0.663433 3.724984
v -7.258465 0.663433 1.648594
v -5.182076 0.669371 -0.427795
v -5.182076 0.669371 18.259712
v -5.182076 0.663433 16.183323
v -5.182076 0.663433 1.648594
v -3.105685 -0.330629 -0.427795
v -3.105685 -0.330629 18.259712
v 3.105685 -0.330629 -0.427795
v 3.105686 -0.330629 18.259712
v 5.182076 0.669371 -0.427795
v 5.182076 0.669371 18.259712
v 5.182076 0.663433 16.183323
v 5.182076 0.663433 1.648594
v 11.390335 2.669250 20.336102
v 9.313945 2.669250 20.336102
v 7.258465 0.663433 16.183323
v 7.258465 0.663433 14.106933
v 7.258465 0.663433 12.030542
v 7.258465 0.663433 9.954153
v 7.258465 0.663433 7.877763
v 7.258465 0.663433 5.801373
v 7.258465 0.663433 3.724984
v 7.258465 0.663433 1.648594
v 11.390335 2.669250 -2.504186
v 11.390335 2.669250 -0.427795
v -9.313945 2.669250 -2.504186
v -11.390335 2.669250 -2.504186
v -11.390335 2.669250 -0.427795
v -11.390335 2.669250 3.724984
v -11.390335 2.669250 5.801374
v -11.390335 2.669250 9.954153
v -11.390335 2.669250 7.877764
v 11.401661 1.669320 14.106933
v 11.401661 1.669320 12.030542
v 11.401661 1.669320 9.954153
v 11.401661 1.669320 7.877763
v 11.401661 1.669320 5.801373
v 11.401661 1.669320 3.724984
v 11.401661 1.669320 1.648594
v 9.325272 1.669320 -2.504186
v 7.248881 1.669320 -2.504186
v 5.172492 0.669320 -2.504186
v -5.172492 0.669320 -2.504186
v -7.248881 1.669320 -2.504186
v -9.313945 3.669250 9.954153
v -9.313945 3.669250 12.030542
v -9.313945 3.669250 14.106933
v -9.313945 2.669250 16.183323
v 11.390335 3.669250 3.724984
v 11.390335 3.669250 5.801373
v 11.390335 3.669250 7.877763
v 11.390335 3.669250 9.954153
v 11.390335 3.669250 12.030542
v -7.248881 1.669320 -0.427795
v -7.248881 1.669320 18.259712
v -7.248881 1.663383 16.183323
v -7.248881 1.663383 14.106933
v -7.248881 1.663383 12.030542
v -7.248881 1.663383 9.954153
v -7.248881 1.663383 7.877763
v -7.248881 1.663383 5.801373
v -7.248881 1.663383 3.724984
v -7.248881 1.663383 1.648594
v -5.172492 0.669320 -0.427795
v -5.172492 0.669320 18.259712
v -5.172492 0.663383 16.183323
v -5.172492 0.663383 1.648594
v 5.172492 0.669320 -0.427795
v 5.172492 0.669320 18.259712
v 5.172492 0.663383 16.183323
v 5.172492 0.663383 1.648594
v 7.248881 1.669320 -0.427795
v 7.248881 1.669320 18.259712
v 7.248881 1.663383 16.183323
v 7.248881 1.663383 14.106933
v 7.248881 1.663383 12.030542
v 7.248881 1.663383 9.954153
v 7.248881 1.663383 7.877763
v 7.248881 1.663383 5.801373
v 7.248881 1.663383 3.724984
v 7.248881 1.663383 1.648594
v 11.390335 3.669250 14.106933
v -11.390335 3.669250 7.877764
v -11.390335 3.669250 5.801374
v -11.390335 3.669250 3.724984
v -11.390335 2.669250 1.648594
v -11.390335 3.669250 9.954153
v -11.390335 3.669250 12.030543
v -11.390335 3.669250 14.106934
v 11.390335 2.669250 9.954153
v 11.390335 2.669250 7.877763
v 11.390335 2.669250 5.801373
v 11.390335 2.669250 3.724984
v 11.390335 2.669250 1.648594
v 9.313945 2.669250 -2.504186
v 7.237556 1.669250 -2.504186
v -7.237556 1.669250 -2.504186
v -9.313945 2.669250 -0.427795
v -9.313945 2.669250 18.259712
v -9.313945 2.669250 1.648594
v -7.237556 1.669250 -0.427795
v -7.237556 1.669250 18.259712
v -7.237556 2.663313 14.106933
v -7.237556 2.663313 12.030542
v -7.237556 2.663313 9.954153
v -7.237556 2.663313 7.877763
v -7.237556 2.663313 5.801373
v -7.237556 2.663313 3.724984
v 7.237556 1.669250 -0.427795
v 7.237556 1.669250 18.259712
v 7.237556 2.663313 14.106933
v 7.237556 2.663313 12.030542
v 7.237556 2.663313 9.954153
v 7.237556 2.663313 7.877763
v 7.237556 2.663313 5.801373
v 7.237556 2.663313 3.724984
v 7.237556 1.663313 1.648594
v 9.313945 2.669250 -0.427795
v 9.313945 2.669250 18.259712
v 9.313945 2.669250 16.183323
v 9.313945 2.669250 1.648594
v -9.313945 3.669250 7.877763
v -9.313945 3.669250 5.801373
v -9.313945 3.669250 3.724984
v -7.237556 1.663313 16.183323
v -7.237556 3.663313 14.106933
v -7.237556 3.663313 12.030542
v -7.237556 3.663313 9.954153
v -7.237556 3.663313 7.877763
v -7.237556 3.663313 5.801373
v -7.237556 3.663313 3.724984
v -7.237556 1.663313 1.648594
v 7.237556 1.663313 16.183323
v 7.237556 3.663313 14.106933
v 7.237556 3.663313 12.030542
v 7.237556 3.663313 9.954153
v 7.237556 3.663313 7.877763
v 7.237556 3.663313 5.801373
v 7.237556 3.663313 3.724984
v 9.313945 3.669250 14.106933
v 9.313945 3.669250 12.030542
v 9.313945 3.669250 9.954153
v 9.313945 3.669250 7.877763
v 9.313945 3.669250 5.801373
v 9.313945 3.669250 3.724984
v -1.038195 4.504217 9.954153
v -1.038195 4.504217 7.877763
v 1.038195 4.504217 9.954153
v 1.038195 4.504217 7.877763
v 1.035629 3.504313 9.954153
v 1.035629 3.504313 7.877763
v 1.035629 4.504313 7.877763
v 1.035629 4.504313 9.954153
v -1.035629 3.504313 9.954153
v -1.035629 3.504313 7.877763
v -1.035629 4.504313 7.877763
v -1.035629 4.504313 9.954153
vn 1.0000 0.0089 -0.0000
vn 1.0000 -0.0089 -0.0000
vn -1.0000 0.0089 -0.0000
vn -1.0000 -0.0089 -0.0000
vn -0.0000 1.0000 -0.0000
vn 0.0049 -1.0000 -0.0000
vn -0.0000 -0.0000 1.0000
vn -0.0000 -0.0000 -1.0000
vn -0.0049 -1.0000 -0.0000
vn -0.0000 1.0000 -0.0029
vn 0.1525 0.9765 -0.1525
vn 0.2981 0.9545 -0.0000
vn 0.1525 0.9765 0.1525
vn -0.0000 1.0000 0.0029
vn -0.0000 0.9545 -0.2981
vn 0.1212 0.9852 -0.1212
vn 0.2389 0.9710 -0.0000
vn 0.1212 0.9852 0.1212
vn -0.0000 0.9545 0.2981
vn -0.0000 0.9710 -0.2389
vn -0.0000 0.9710 0.2389
vn -0.1212 0.9852 -0.1212
vn -0.2389 0.9710 -0.0000
vn -0.1212 0.9852 0.1212
vn -0.1525 0.9765 -0.1525
vn -0.2981 0.9545 -0.0000
vn -0.1525 0.9765 0.1525
vn 0.0053 -1.0000 -0.0029
vn 0.4339 0.9010 -0.0000
vn -0.4339 0.9010 -0.0000
vn 0.0053 -1.0000 0.0029
vn 0.0053 -1.0000 -0.0000
vn -1.0000 0.0096 -0.0000
vn -0.0053 -1.0000 -0.0029
vn -0.0053 -1.0000 0.0029
vn -0.0053 -1.0000 -0.0000
vn 1.0000 -0.0096 -0.0000
vn 1.0000 0.0096 -0.0000
vn -1.0000 -0.0096 -0.0000
vn -0.9999 -0.0113 -0.0000
vn -0.9997 -0.0226 -0.0055
vn 0.0062 -1.0000 0.0029
vn -0.9999 0.0113 -0.0000
vn 0.0062 -1.0000 -0.0000
vn 0.9999 0.0113 -0.0000
vn 0.4339 0.9010 -0.0026
vn 0.4339 0.9010 0.0026
vn -0.4339 0.9010 -0.0026
vn -0.4339 0.9010 0.0026
vn -0.0062 -1.0000 -0.0029
vn 0.9997 -0.0226 0.0055
vn 0.9999 -0.0113 -0.0000
vn 0.9997 -0.0226 -0.0055
vn 0.0062 -1.0000 -0.0029
vn -0.0062 -1.0000 0.0029
vn -0.9997 -0.0226 0.0055
vn 1.0000 -0.0000 -0.0000
vn -1.0000 -0.0000 -0.0000
vn -0.1344 -0.9909 -0.0000
vn 0.4350 0.9005 -0.0013
vn 0.4350 0.9005 0.0013
vn -0.4350 0.9005 -0.0013
vn -0.4350 0.9005 0.0013
vn -0.0062 -1.0000 -0.0000
vn -0.0000 0.9010 0.4339
vn -0.0000 0.9010 -0.4339
vn 0.1938 0.7952 0.5745
vn 0.0029 1.0000 -0.0000
vn 0.1938 0.7952 -0.5745
vn -0.1938 0.7952 0.5745
vn -0.0029 1.0000 -0.0000
vn -0.1938 0.7952 -0.5745
vn 0.1344 0.9909 -0.0000
vn -0.1344 0.9909 -0.0000
vn 0.1344 -0.9909 -0.0000
vt 0.000000 0.000000
vt 0.181818 0.363636
vt 0.181818 0.454545
vt 0.818182 0.545455
vt 0.818182 0.454545
vt 0.363636 0.909091
vt 0.454545 0.909091
vt 0.454545 1.000000
vt 0.363636 1.000000
vt 0.545455 0.909091
vt 0.636364 0.909091
vt 0.636364 1.000000
vt 0.545455 1.000000
vt 0.181818 0.272727
vt 0.636364 0.090909
vt 0.636364 0.000000
vt 0.727273 0.818182
vt 0.818182 0.818182
vt 0.818182 0.363636
vt 0.181818 0.181818
vt 0.818182 0.272727
vt 0.818182 0.181818
vt 0.363636 0.090909
vt 0.272727 0.090909
vt 0.727273 0.909091
vt 0.272727 0.181818
vt 0.272727 0.272727
vt 0.272727 0.363636
vt 0.272727 0.454545
vt 0.272727 0.545455
vt 0.181818 0.545455
vt 0.272727 0.636364
vt 0.181818 0.636364
vt 0.272727 0.727273
vt 0.181818 0.727273
vt 0.272727 0.818182
vt 0.181818 0.818182
vt 0.363636 0.000000
vt 0.727273 0.181818
vt 0.363636 0.181818
vt 0.363636 0.272727
vt 0.363636 0.363636
vt 0.363636 0.454545
vt 0.363636 0.545455
vt 0.363636 0.636364
vt 0.363636 0.727273
vt 0.363636 0.818182
vt 0.272727 0.909091
vt 0.454545 0.000000
vt 0.454545 0.090909
vt 0.454545 0.181818
vt 0.454545 0.272727
vt 0.454545 0.363636
vt 0.454545 0.454545
vt 0.454545 0.545455
vt 0.454545 0.636364
vt 0.454545 0.727273
vt 0.454545 0.818182
vt 0.545455 0.090909
vt 0.545455 0.181818
vt 0.545455 0.272727
vt 0.545455 0.363636
vt 0.545455 0.454545
vt 0.545455 0.545455
vt 0.545455 0.636364
vt 0.545455 0.727273
vt 0.545455 0.818182
vt 0.545455 0.000000
vt 0.636364 0.181818
vt 0.636364 0.272727
vt 0.636364 0.363636
vt 0.636364 0.454545
vt 0.636364 0.545455
vt 0.636364 0.636364
vt 0.636364 0.727273
vt 0.636364 0.818182
vt 0.727273 0.090909
vt 0.727273 0.272727
vt 0.727273 0.363636
vt 0.727273 0.454545
vt 0.727273 0.545455
vt 0.727273 0.636364
vt 0.727273 0.727273
vt 0.818182 0.636364
vt 0.818182 0.727273
vt 0.272727 1.000000
vt 0.727273 1.000000
vt 0.727273 0.000000
vt 0.272727 0.000000
vt 0.181818 0.909091
vt 0.181818 1.000000
vt 0.818182 0.909091
vt 0.818182 1.000000
vt 0.818182 0.090909
vt 0.818182 0.000000
vt 0.181818 0.000000
vt 0.181818 0.090909
vt 0.909091 0.909091
vt 1.000000 0.909091
vt 1.000000 1.000000
vt 0.909091 1.000000
vt 0.000000 0.909091
vt 0.090909 0.909091
vt 0.090909 1.000000
vt 0.000000 1.000000
vt 0.090909 0.000000
vt 0.090909 0.090909
vt 0.000000 0.090909
vt 0.090909 0.181818
vt 0.000000 0.181818
vt 0.000000 0.818182
vt 0.090909 0.818182
vt 0.909091 0.000000
vt 0.909091 0.090909
vt 1.000000 0.000000
vt 1.000000 0.090909
vt 1.000000 0.181818
vt 0.909091 0.181818
vt 0.909091 0.818182
vt 1.000000 0.818182
vt 0.090909 0.272727
vt 0.000000 0.272727
vt 0.090909 0.363636
vt 0.000000 0.363636
vt 0.090909 0.454545
vt 0.000000 0.454545
vt 0.090909 0.545455
vt 0.000000 0.545455
vt 0.090909 0.636364
vt 0.000000 0.636364
vt 0.090909 0.727273
vt 0.000000 0.727273
vt 0.909091 0.272727
vt 0.909091 0.363636
vt 0.909091 0.454545
vt 0.909091 0.545455
vt 0.909091 0.636364
vt 0.909091 0.727273
vt 1.000000 0.272727
vt 1.000000 0.363636
vt 1.000000 0.454545
vt 1.000000 0.545455
vt 1.000000 0.636364
vt 1.000000 0.727273
s 0
f 32/1/1 33/1/1 153/1/1 181/1/1
f 57/2/2 58/3/2 204/3/2 203/2/2
f 6/1/3 7/1/3 159/1/3 158/1/3
f 129/4/4 128/5/4 226/5/4 227/4/4
f 31/1/1 32/1/1 181/1/1 180/1/1
f 83/6/5 93/7/5 39/8/5 40/9/5
f 103/10/5 113/11/5 37/12/5 38/13/5
f 56/14/2 57/2/2 203/2/2 202/14/2
f 104/15/6 20/16/6 170/16/6 216/15/6
f 122/17/7 132/18/7 230/18/7 220/17/7
f 5/1/3 6/1/3 158/1/3 157/1/3
f 128/5/4 127/19/4 225/19/4 226/5/4
f 30/1/1 31/1/1 180/1/1 179/1/1
f 55/20/2 56/14/2 202/14/2 201/20/2
f 37/12/6 113/11/6 215/11/6 185/12/6
f 3/1/3 5/1/3 157/1/3 156/1/3
f 127/19/4 126/21/4 224/21/4 225/19/4
f 29/1/1 30/1/1 179/1/1 178/1/1
f 43/1/8 3/1/8 156/1/8 155/1/8
f 126/21/4 125/22/4 223/22/4 224/21/4
f 28/1/1 29/1/1 178/1/1 177/1/1
f 33/1/1 4/1/1 154/1/1 153/1/1
f 27/1/1 28/1/1 177/1/1 176/1/1
f 23/1/7 2/1/7 152/1/7 151/1/7
f 26/1/1 27/1/1 176/1/1 175/1/1
f 14/1/3 1/1/3 150/1/3 149/1/3
f 25/1/1 26/1/1 175/1/1 174/1/1
f 74/23/8 64/24/8 210/24/8 214/23/8
f 123/25/4 122/17/4 220/17/4 217/25/4
f 24/1/1 25/1/1 174/1/1 173/1/1
f 55/20/5 65/26/5 66/27/5 56/14/5
f 56/14/5 66/27/5 67/28/5 57/2/5
f 57/2/5 67/28/5 68/29/5 58/3/5
f 58/3/5 68/29/5 69/30/5 59/31/5
f 59/31/5 69/30/5 70/32/5 60/33/5
f 60/33/5 70/32/5 71/34/5 61/35/5
f 61/35/5 71/34/5 72/36/5 62/37/5
f 18/38/9 74/23/9 214/23/9 169/38/9
f 125/22/8 115/39/8 219/39/8 223/22/8
f 64/24/10 74/23/10 75/40/10 65/26/10
f 65/26/5 75/40/5 76/41/5 66/27/5
f 66/27/11 76/41/11 77/42/11 67/28/11
f 67/28/12 77/42/12 78/43/12 68/29/12
f 68/29/12 78/43/12 79/44/12 69/30/12
f 69/30/12 79/44/12 80/45/12 70/32/12
f 70/32/13 80/45/13 81/46/13 71/34/13
f 71/34/5 81/46/5 82/47/5 72/36/5
f 72/36/14 82/47/14 83/6/14 73/48/14
f 18/38/5 144/49/5 84/50/5 74/23/5
f 74/23/10 84/50/10 85/51/10 75/40/10
f 75/40/5 85/51/5 86/52/5 76/41/5
f 76/41/15 86/52/15 87/53/15 77/42/15
f 77/42/16 87/53/16 88/54/16 78/43/16
f 78/43/17 88/54/17 89/55/17 79/44/17
f 79/44/18 89/55/18 90/56/18 80/45/18
f 80/45/19 90/56/19 91/57/19 81/46/19
f 81/46/5 91/57/5 92/58/5 82/47/5
f 82/47/14 92/58/14 93/7/14 83/6/14
f 84/50/10 94/59/10 95/60/10 85/51/10
f 85/51/5 95/60/5 96/61/5 86/52/5
f 86/52/15 96/61/15 97/62/15 87/53/15
f 87/53/20 97/62/20 98/63/20 88/54/20
f 89/55/21 99/64/21 100/65/21 90/56/21
f 90/56/19 100/65/19 101/66/19 91/57/19
f 91/57/5 101/66/5 102/67/5 92/58/5
f 92/58/14 102/67/14 103/10/14 93/7/14
f 19/68/5 20/16/5 104/15/5 94/59/5
f 94/59/10 104/15/10 105/69/10 95/60/10
f 95/60/5 105/69/5 106/70/5 96/61/5
f 96/61/15 106/70/15 107/71/15 97/62/15
f 97/62/22 107/71/22 108/72/22 98/63/22
f 98/63/23 108/72/23 109/73/23 99/64/23
f 99/64/24 109/73/24 110/74/24 100/65/24
f 100/65/19 110/74/19 111/75/19 101/66/19
f 101/66/5 111/75/5 112/76/5 102/67/5
f 102/67/14 112/76/14 113/11/14 103/10/14
f 2/1/1 24/1/1 173/1/1 152/1/1
f 104/15/10 114/77/10 115/39/10 105/69/10
f 105/69/5 115/39/5 116/78/5 106/70/5
f 106/70/25 116/78/25 117/79/25 107/71/25
f 107/71/26 117/79/26 118/80/26 108/72/26
f 108/72/26 118/80/26 119/81/26 109/73/26
f 109/73/26 119/81/26 120/82/26 110/74/26
f 110/74/27 120/82/27 121/83/27 111/75/27
f 111/75/5 121/83/5 122/17/5 112/76/5
f 112/76/14 122/17/14 123/25/14 113/11/14
f 62/37/7 72/36/7 212/36/7 208/37/7
f 83/6/9 40/9/9 186/9/9 213/6/9
f 115/39/5 125/22/5 126/21/5 116/78/5
f 116/78/5 126/21/5 127/19/5 117/79/5
f 117/79/5 127/19/5 128/5/5 118/80/5
f 118/80/5 128/5/5 129/4/5 119/81/5
f 119/81/5 129/4/5 130/84/5 120/82/5
f 120/82/5 130/84/5 131/85/5 121/83/5
f 121/83/5 131/85/5 132/18/5 122/17/5
f 22/1/7 23/1/7 151/1/7 172/1/7
f 72/36/2 73/48/2 209/48/2 212/36/2
f 113/11/7 123/25/7 217/25/7 215/11/7
f 21/1/7 22/1/7 172/1/7 171/1/7
f 20/1/7 21/1/7 171/1/7 170/1/7
f 115/39/4 114/77/4 218/77/4 219/39/4
f 17/1/7 18/1/7 169/1/7 168/1/7
f 65/26/8 55/20/8 201/20/8 211/26/8
f 16/1/7 17/1/7 168/1/7 167/1/7
f 42/1/8 43/1/8 155/1/8 188/1/8
f 15/1/7 16/1/7 167/1/7 166/1/7
f 41/1/8 42/1/8 188/1/8 187/1/8
f 64/24/2 65/26/2 211/26/2 210/24/2
f 1/1/7 15/1/7 166/1/7 150/1/7
f 40/1/8 41/1/8 187/1/8 186/1/8
f 114/77/8 104/15/8 216/15/8 218/77/8
f 13/1/3 14/1/3 149/1/3 165/1/3
f 12/1/3 13/1/3 165/1/3 164/1/3
f 11/1/3 12/1/3 164/1/3 163/1/3
f 88/54/7 98/63/7 355/63/7 353/54/7
f 36/1/8 37/1/8 185/1/8 184/1/8
f 61/35/2 62/37/2 208/37/2 207/35/2
f 10/1/3 11/1/3 163/1/3 162/1/3
f 35/1/8 36/1/8 184/1/8 183/1/8
f 144/49/5 19/68/5 94/59/5 84/50/5
f 38/13/5 39/8/5 93/7/5 103/10/5
f 39/8/5 38/13/5 145/13/5 146/8/5
f 19/68/5 144/49/5 148/49/5 147/68/5
f 220/17/7 230/18/7 288/18/7 278/17/7
f 171/1/7 172/1/7 46/1/7 47/1/7
f 217/25/28 220/17/28 278/17/28 275/25/28
f 223/22/8 219/39/8 277/39/8 281/22/8
f 209/48/29 213/6/29 186/9/29 187/86/29
f 215/11/30 217/25/30 184/87/30 185/12/30
f 219/39/31 218/77/31 276/77/31 277/39/31
f 218/77/32 171/88/32 47/88/32 276/77/32
f 167/1/7 168/1/7 48/1/7 49/1/7
f 184/87/32 217/25/32 275/25/32 249/87/32
f 166/1/7 167/1/7 49/1/7 50/1/7
f 150/1/7 166/1/7 50/1/7 142/1/7
f 165/1/33 149/1/33 143/1/33 51/1/33
f 164/1/33 165/1/33 51/1/33 52/1/33
f 208/37/7 212/36/7 274/36/7 270/37/7
f 163/1/33 164/1/33 52/1/33 53/1/33
f 188/1/8 155/1/8 137/1/8 251/1/8
f 212/36/34 209/48/34 271/48/34 274/36/34
f 211/26/8 201/20/8 263/20/8 273/26/8
f 162/1/33 163/1/33 53/1/33 54/1/33
f 187/1/8 188/1/8 251/1/8 250/1/8
f 210/24/35 211/26/35 273/26/35 272/24/35
f 161/1/33 162/1/33 54/1/33 63/1/33
f 168/89/36 210/24/36 272/24/36 48/89/36
f 160/1/33 161/1/33 63/1/33 124/1/33
f 209/48/36 187/86/36 250/86/36 271/48/36
f 159/1/33 160/1/33 124/1/33 133/1/33
f 183/1/8 184/1/8 249/1/8 248/1/8
f 158/1/33 159/1/33 133/1/33 134/1/33
f 168/89/29 169/38/29 214/23/29 210/24/29
f 170/16/30 171/88/30 218/77/30 216/15/30
f 182/1/8 183/1/8 248/1/8 247/1/8
f 207/35/37 208/37/37 270/37/37 269/35/37
f 157/1/33 158/1/33 134/1/33 135/1/33
f 154/1/8 182/1/8 247/1/8 138/1/8
f 206/33/37 207/35/37 269/35/37 268/33/37
f 156/1/33 157/1/33 135/1/33 136/1/33
f 181/1/38 153/1/38 139/1/38 246/1/38
f 205/31/37 206/33/37 268/33/37 267/31/37
f 155/1/8 156/1/8 136/1/8 137/1/8
f 180/1/38 181/1/38 246/1/38 245/1/38
f 204/3/37 205/31/37 267/31/37 266/3/37
f 230/18/39 229/85/39 287/85/39 288/18/39
f 153/1/38 154/1/38 138/1/38 139/1/38
f 179/1/38 180/1/38 245/1/38 244/1/38
f 203/2/37 204/3/37 266/3/37 265/2/37
f 229/85/39 228/84/39 286/84/39 287/85/39
f 151/1/7 152/1/7 140/1/7 141/1/7
f 178/1/38 179/1/38 244/1/38 243/1/38
f 202/14/37 203/2/37 265/2/37 264/14/37
f 228/84/39 227/4/39 285/4/39 286/84/39
f 149/1/33 150/1/33 142/1/33 143/1/33
f 177/1/38 178/1/38 243/1/38 242/1/38
f 201/20/37 202/14/37 264/14/37 263/20/37
f 227/4/39 226/5/39 284/5/39 285/4/39
f 176/1/38 177/1/38 242/1/38 241/1/38
f 130/84/4 129/4/4 227/4/4 228/84/4
f 7/1/3 8/1/3 160/1/3 159/1/3
f 58/3/2 59/31/2 205/31/2 204/3/2
f 4/1/8 34/1/8 182/1/8 154/1/8
f 131/85/4 130/84/4 228/84/4 229/85/4
f 8/1/3 9/1/3 161/1/3 160/1/3
f 73/48/7 83/6/7 213/6/7 209/48/7
f 59/31/2 60/33/2 206/33/2 205/31/2
f 34/1/8 35/1/8 183/1/8 182/1/8
f 132/18/4 131/85/4 229/85/4 230/18/4
f 9/1/3 10/1/3 162/1/3 161/1/3
f 60/33/2 61/35/2 207/35/2 206/33/2
f 283/19/40 282/21/40 318/21/40 319/19/40
f 50/1/7 49/1/7 194/1/7 195/1/7
f 282/21/41 281/22/41 340/22/41 318/21/41
f 261/90/29 271/48/29 250/86/29 251/91/29
f 275/25/30 279/92/30 248/93/30 249/87/30
f 142/1/7 50/1/7 195/1/7 199/1/7
f 281/22/42 280/94/42 317/94/42 340/22/42
f 51/1/43 143/1/43 200/1/43 196/1/43
f 280/94/44 46/95/44 193/95/44 317/94/44
f 52/1/43 51/1/43 196/1/43 197/1/43
f 248/93/44 279/92/44 316/92/44 303/93/44
f 53/1/43 52/1/43 197/1/43 198/1/43
f 54/1/43 53/1/43 198/1/43 238/1/43
f 143/1/43 142/1/43 199/1/43 200/1/43
f 141/1/7 140/1/7 221/1/7 222/1/7
f 139/1/45 138/1/45 231/1/45 232/1/45
f 137/1/8 136/1/8 234/1/8 233/1/8
f 251/1/8 137/1/8 233/1/8 304/1/8
f 136/1/43 135/1/43 235/1/43 234/1/43
f 135/1/43 134/1/43 293/1/43 235/1/43
f 247/1/8 248/1/8 303/1/8 302/1/8
f 134/1/43 133/1/43 236/1/43 293/1/43
f 138/1/8 247/1/8 302/1/8 231/1/8
f 133/1/43 124/1/43 237/1/43 236/1/43
f 49/96/29 48/89/29 272/24/29 262/97/29
f 262/97/46 272/24/46 273/26/46 263/20/46
f 270/37/47 274/36/47 271/48/47 261/90/47
f 47/88/30 46/95/30 280/94/30 276/77/30
f 276/77/48 280/94/48 281/22/48 277/39/48
f 278/17/49 288/18/49 279/92/49 275/25/49
f 270/37/50 261/90/50 308/90/50 339/37/50
f 246/1/45 139/1/45 232/1/45 301/1/45
f 124/1/43 63/1/43 239/1/43 237/1/43
f 269/35/51 270/37/51 339/37/51 315/35/51
f 245/1/45 246/1/45 301/1/45 300/1/45
f 63/1/43 54/1/43 238/1/43 239/1/43
f 268/33/52 269/35/52 315/35/52 314/33/52
f 244/1/45 245/1/45 300/1/45 299/1/45
f 267/31/52 268/33/52 314/33/52 313/31/52
f 243/1/45 244/1/45 299/1/45 298/1/45
f 266/3/52 267/31/52 313/31/52 312/3/52
f 242/1/45 243/1/45 298/1/45 297/1/45
f 265/2/52 266/3/52 312/3/52 311/2/52
f 241/1/45 242/1/45 297/1/45 189/1/45
f 264/14/52 265/2/52 311/2/52 310/14/52
f 240/1/45 241/1/45 189/1/45 190/1/45
f 263/20/53 264/14/53 310/14/53 332/20/53
f 279/92/54 288/18/54 324/18/54 316/92/54
f 44/1/45 240/1/45 190/1/45 191/1/45
f 262/97/55 263/20/55 332/20/55 309/97/55
f 288/18/56 287/85/56 323/85/56 324/18/56
f 45/1/45 44/1/45 191/1/45 192/1/45
f 172/1/7 151/1/7 141/1/7 46/1/7
f 152/1/38 173/1/38 45/1/38 140/1/38
f 173/1/38 174/1/38 44/1/38 45/1/38
f 224/21/39 223/22/39 281/22/39 282/21/39
f 174/1/38 175/1/38 240/1/38 44/1/38
f 225/19/39 224/21/39 282/21/39 283/19/39
f 175/1/38 176/1/38 241/1/38 240/1/38
f 226/5/39 225/19/39 283/19/39 284/5/39
f 325/98/5 232/99/5 231/100/5 302/101/5
f 235/102/5 305/103/5 233/104/5 234/105/5
f 305/103/29 308/90/29 304/91/29 233/104/29
f 316/92/30 325/98/30 302/101/30 303/93/30
f 199/1/5 195/106/5 306/107/5 200/108/5
f 200/108/5 306/107/5 255/109/5 196/110/5
f 298/1/57 299/1/57 257/1/57 258/1/57
f 239/1/58 238/1/58 294/1/58 290/1/58
f 314/33/57 315/35/57 338/35/57 337/33/57
f 297/1/57 298/1/57 258/1/57 259/1/57
f 237/1/58 239/1/58 290/1/58 291/1/58
f 293/111/5 307/112/5 305/103/5 235/102/5
f 195/106/29 194/96/29 309/97/29 306/107/29
f 313/31/57 314/33/57 337/33/57 336/31/57
f 189/1/57 297/1/57 259/1/57 260/1/57
f 236/1/58 237/1/58 291/1/58 292/1/58
f 324/18/58 323/85/58 346/85/58
f 335/3/7 312/3/7 361/3/7 364/3/7
f 190/1/57 189/1/57 260/1/57 289/1/57
f 293/1/58 236/1/58 292/1/58
f 193/95/30 222/113/30 326/114/30 317/94/30
f 323/85/58 322/84/58 345/84/58 346/85/58
f 311/2/57 312/3/57 335/3/57 334/2/57
f 191/1/57 190/1/57 289/1/57
f 322/84/58 321/4/58 344/4/58 345/84/58
f 310/14/57 311/2/57 334/2/57 333/14/57
f 222/113/5 221/115/5 192/116/5 326/114/5
f 326/114/5 192/116/5 191/117/5 327/118/5
f 321/4/59 320/5/59 357/5/59 358/4/59
f 332/20/57 310/14/57 333/14/57
f 320/5/58 319/19/58 342/19/58 343/5/58
f 319/19/58 318/21/58 341/21/58 342/19/58
f 318/21/58 340/22/58 341/21/58
f 328/119/5 301/120/5 232/99/5 325/98/5
f 306/107/60 309/97/60 332/20/60 255/109/60
f 307/112/61 339/37/61 308/90/61 305/103/61
f 317/94/62 326/114/62 327/118/62 340/22/62
f 324/18/63 328/119/63 325/98/63 316/92/63
f 284/5/40 283/19/40 319/19/40 320/5/40
f 285/4/40 284/5/40 320/5/40 321/4/40
f 46/1/7 141/1/7 222/1/7 193/1/7
f 286/84/40 285/4/40 321/4/40 322/84/40
f 261/90/64 251/91/64 304/91/64 308/90/64
f 140/1/45 45/1/45 192/1/45 221/1/45
f 287/85/40 286/84/40 322/84/40 323/85/40
f 49/96/64 262/97/64 309/97/64 194/96/64
f 196/110/65 255/109/65 254/121/65 296/122/65
f 296/122/5 254/121/5 253/123/5 295/124/5
f 295/124/5 253/123/5 252/125/5 294/126/5
f 294/126/5 252/125/5 329/127/5 290/128/5
f 290/128/5 329/127/5 330/129/5 291/130/5
f 291/130/5 330/129/5 331/131/5 292/132/5
f 292/132/66 331/131/66 307/112/66 293/111/66
f 255/109/67 332/20/67 333/14/67 254/121/67
f 254/121/68 333/14/68 334/2/68 253/123/68
f 253/123/68 334/2/68 335/3/68 252/125/68
f 252/125/68 335/3/68 336/31/68 329/127/68
f 329/127/68 336/31/68 337/33/68 330/129/68
f 330/129/68 337/33/68 338/35/68 331/131/68
f 331/131/69 338/35/69 339/37/69 307/112/69
f 340/22/70 327/118/70 347/133/70 341/21/70
f 341/21/71 347/133/71 348/134/71 342/19/71
f 342/19/71 348/134/71 349/135/71 343/5/71
f 343/5/71 349/135/71 350/136/71 344/4/71
f 344/4/71 350/136/71 351/137/71 345/84/71
f 345/84/71 351/137/71 352/138/71 346/85/71
f 346/85/72 352/138/72 328/119/72 324/18/72
f 327/118/65 191/117/65 289/139/65 347/133/65
f 347/133/5 289/139/5 260/140/5 348/134/5
f 348/134/5 260/140/5 259/141/5 349/135/5
f 349/135/5 259/141/5 258/142/5 350/136/5
f 350/136/5 258/142/5 257/143/5 351/137/5
f 351/137/5 257/143/5 256/144/5 352/138/5
f 352/138/66 256/144/66 301/120/66 328/119/66
f 315/35/57 339/37/57 338/35/57
f 299/1/57 300/1/57 256/1/57 257/1/57
f 197/1/58 196/1/58 296/1/58
f 300/1/57 301/1/57 256/1/57
f 198/1/58 197/1/58 296/1/58 295/1/58
f 238/1/58 198/1/58 295/1/58 294/1/58
f 353/54/5 355/63/5 356/64/5 354/55/5
f 89/55/58 88/54/58 353/54/58 354/55/58
f 98/63/57 99/64/57 356/64/57 355/63/57
f 99/64/8 89/55/8 354/55/8 356/64/8
f 358/4/58 357/5/58 360/5/58 359/4/58
f 320/5/7 343/5/7 360/5/7 357/5/7
f 344/4/8 321/4/8 358/4/8 359/4/8
f 343/5/73 344/4/73 359/4/73 360/5/73
f 361/3/57 362/31/57 363/31/57 364/3/57
f 336/31/74 335/3/74 364/3/74 363/31/74
f 313/31/8 336/31/8 363/31/8 362/31/8
f 312/3/75 313/31/75 362/31/75 361/3/75
