# Blender 4.2.14 LTS
# www.blender.org
mtllib WallLVL3.mtl
o Paredes
v -1.000000 -0.330809 -2.500121
v -1.000000 1.686670 -2.500121
v -1.000000 -0.330809 -5.455679
v -1.000000 1.686670 -5.455679
v 1.000000 -0.330809 -2.500121
v 1.000000 1.686670 -2.500121
v 1.000000 -0.330809 -5.455679
v 1.000000 1.686670 -5.455679
v -11.390245 -0.330809 -2.500121
v -11.390245 1.686670 -2.500121
v 11.390347 -0.330809 -2.500121
v 11.390347 1.686670 -2.500121
v -1.000000 8.580835 -2.500121
v 1.000000 8.580835 -2.500121
v -11.390245 6.300034 -2.500121
v 11.390347 6.300034 -2.500121
v 11.390347 -0.330809 20.340279
v 11.390347 1.686670 20.340279
v 11.390347 6.300033 20.340281
v -11.390245 -0.330809 20.340279
v -11.390245 1.686670 20.340279
v -11.390245 6.300033 20.340281
v -1.040267 -0.330809 20.340279
v -1.042659 1.686670 20.340279
v -1.042659 8.580835 20.340281
v 1.040065 -0.330809 20.340279
v 1.039144 1.686670 20.340279
v 1.134726 8.580835 20.340281
v -1.040267 -0.330809 22.472366
v -1.042659 1.686670 22.472366
v 1.040065 -0.330809 22.472366
v 1.039144 1.686670 22.472366
vn 1.0000 -0.0000 -0.0000
vn -1.0000 -0.0000 -0.0000
vn -0.0000 -1.0000 -0.0000
vn -0.0000 -0.0000 1.0000
vn -0.0000 -0.0000 -1.0000
vn 0.2148 -0.9767 0.0002
vn -0.2157 -0.9765 0.0006
vn -1.0000 -0.0005 -0.0000
vn 1.0000 0.0012 -0.0000
vt 0.375000 0.000000
vt 0.375000 0.250000
vt 0.625000 0.250000
vt 0.625000 0.000000
vt 0.375000 0.500000
vt 0.375000 0.750000
vt 0.625000 0.750000
vt 0.625000 0.500000
vt 0.875000 0.750000
vt 0.875000 0.500000
s 0
f 1/1/1 3/2/1 4/3/1 2/4/1
f 7/5/2 5/6/2 6/7/2 8/8/2
f 8/8/3 6/7/3 2/9/3 4/10/3
f 1/1/4 2/4/4 10/4/4 9/1/4
f 6/7/4 5/6/4 11/6/4 12/7/4
f 6/7/4 12/7/4 16/7/4 14/7/4
f 10/4/4 2/4/4 13/4/4 15/4/4
f 2/9/4 6/7/4 14/7/4 13/9/4
f 16/7/2 12/7/2 18/7/2 19/7/2
f 12/7/2 11/6/2 17/6/2 18/7/2
f 10/4/1 15/4/1 22/4/1 21/4/1
f 9/1/1 10/4/1 21/4/1 20/1/1
f 21/4/5 22/4/5 25/4/5 24/4/5
f 20/1/5 21/4/5 24/4/5 23/1/5
f 19/7/5 18/7/5 27/7/5 28/7/5
f 18/7/5 17/6/5 26/6/5 27/7/5
f 25/4/5 28/7/5 27/7/5 24/4/5
f 13/4/6 25/4/6 22/4/6 15/4/6
f 14/7/7 16/7/7 19/7/7 28/7/7
f 13/4/3 14/7/3 28/7/3 25/4/3
f 24/4/3 27/7/3 32/7/3 30/4/3
f 27/7/8 26/6/8 31/6/8 32/7/8
f 23/1/9 24/4/9 30/4/9 29/1/9
