# Blender 4.2.14 LTS
# www.blender.org
mtllib WallLVL2.mtl
o Paredes
v -1.000000 -0.330809 -2.500121
v -1.000000 1.686670 -2.500121
v -1.000000 -0.330809 -5.455679
v -1.000000 1.686670 -5.455679
v 1.000000 -0.330809 -2.500121
v 1.000000 1.686670 -2.500121
v 1.000000 -0.330809 -5.455679
v 1.000000 1.686670 -5.455679
v -17.000000 -0.330809 -2.500072
v -12.039492 13.184286 2.460437
v 17.000000 -0.330809 -2.500072
v 12.039492 13.184286 2.460437
v -17.000000 -0.330809 31.499928
v -12.039492 13.184286 26.539419
v 17.000000 -0.330809 31.499928
v 12.039492 13.184286 26.539419
v -1.020000 -0.330809 31.499928
v -1.020000 1.686670 31.499929
v 1.020000 -0.330809 31.499928
v 1.020000 1.686670 31.499929
v -1.020000 -0.330809 34.499928
v -1.020000 1.686670 34.499931
v 1.020000 -0.330809 34.499928
v 1.020000 1.686670 34.499931
v -17.000000 6.686670 -2.500072
v 17.000000 6.686670 -2.500072
v -17.000000 6.686670 31.499929
v 17.000000 6.686670 31.499929
v -14.618120 9.604823 -0.118192
v 14.618120 9.604823 -0.118192
v -14.618120 9.604822 29.118050
v 14.618120 9.604822 29.118050
v -14.618120 24.048450 -0.118192
v 14.618120 24.048450 -0.118192
v -14.618120 24.048449 29.118048
v 14.618120 24.048449 29.118048
v -12.039492 24.048450 2.460437
v 12.039492 24.048450 2.460437
v -12.039492 24.048449 26.539419
v 12.039492 24.048449 26.539419
vn 1.0000 -0.0000 -0.0000
vn -1.0000 -0.0000 -0.0000
vn -0.0000 -1.0000 -0.0000
vn -0.0000 -0.0000 1.0000
vn -0.0000 -0.0000 -1.0000
vn -0.0000 -0.6323 0.7747
vn -0.0000 -0.6323 -0.7747
vn 0.7747 -0.6323 -0.0000
vn -0.7747 -0.6323 -0.0000
vt 0.375000 0.000000
vt 0.375000 0.250000
vt 0.625000 0.250000
vt 0.625000 0.000000
vt 0.375000 0.500000
vt 0.375000 0.750000
vt 0.625000 0.750000
vt 0.625000 0.500000
vt 0.875000 0.750000
vt 0.875000 0.500000
vt 0.642514 0.750000
vt 0.857486 0.750000
vt 0.857486 0.750000
vt 0.838526 0.750000
vt 0.838526 0.750000
vt 0.661474 0.750000
s 0
f 1/1/1 3/2/1 4/3/1 2/4/1
f 7/5/2 5/6/2 6/7/2 8/8/2
f 8/8/3 6/7/3 2/9/3 4/10/3
f 2/9/4 6/7/4 26/7/4 25/9/4
f 6/7/4 5/6/4 11/6/4 26/7/4
f 1/1/4 2/4/4 25/4/4 9/1/4
f 26/7/2 11/6/2 15/6/2 28/7/2
f 9/1/1 25/4/1 27/4/1 13/1/1
f 27/9/5 28/7/5 20/7/5 18/9/5
f 28/7/5 15/6/5 19/6/5 20/7/5
f 13/1/5 27/4/5 18/4/5 17/1/5
f 18/9/3 20/7/3 24/7/3 22/9/3
f 20/7/2 19/6/2 23/6/2 24/7/2
f 17/1/1 18/4/1 22/4/1 21/1/1
f 30/11/6 29/12/6 25/9/6 26/7/6
f 31/13/7 32/11/7 28/7/7 27/9/7
f 29/12/8 31/13/8 27/9/8 25/9/8
f 32/11/9 30/11/9 26/7/9 28/7/9
f 10/14/2 14/15/2 39/15/2 37/14/2
f 32/11/5 31/13/5 35/13/5 36/11/5
f 30/11/2 32/11/2 36/11/2 34/11/2
f 14/15/4 16/16/4 40/16/4 39/15/4
f 12/16/5 10/14/5 37/14/5 38/16/5
f 31/13/1 29/12/1 33/12/1 35/13/1
f 16/16/1 12/16/1 38/16/1 40/16/1
f 29/12/4 30/11/4 34/11/4 33/12/4
f 12/16/3 16/16/3 14/15/3 10/14/3
