# Blender 4.2.14 LTS
# www.blender.org
mtllib WallLVL4obj.mtl
o Plane
v -10.400001 -3.260706 -2.703320
v 10.400001 -3.260706 -2.703320
v -0.954411 6.763752 -2.703320
v 0.941995 6.763752 -2.703320
v -10.400001 -3.260706 19.776760
v 10.400001 -3.260706 19.776760
v -10.400001 12.692278 19.776760
v 10.400001 12.692278 19.776760
v -0.954299 -3.344610 19.776760
v -0.800000 12.692278 19.776760
v 0.941840 -3.344610 19.776760
v 0.800000 12.692278 19.776760
v -10.400001 12.692278 -2.703320
v 0.941995 4.667819 -2.703320
v -0.954411 4.667819 -2.703320
v 10.400001 12.692278 -2.703320
v -0.954299 -1.331323 19.776760
v 0.941840 -1.331323 19.776760
v 0.854532 12.692278 -2.703320
v -0.854531 12.692278 -2.703320
v -0.954299 -3.344610 21.576759
v 0.941840 -3.344610 21.576759
v -0.954299 -1.331323 21.576759
v 0.941840 -1.331323 21.576759
v -0.954411 4.667819 -5.691750
v 0.941995 4.667819 -5.691750
v -0.954411 6.763752 -5.691750
v 0.941995 6.763752 -5.691750
vn 1.0000 -0.0000 -0.0000
vn -1.0000 -0.0000 -0.0000
vn -0.0000 -1.0000 -0.0000
vn -0.0000 -0.0000 -1.0000
vn -0.0000 -0.0000 1.0000
vt 0.112636 0.816428
vt 0.112636 0.183572
vt 1.000000 1.000000
vt 1.000000 0.000000
vt 0.000000 0.000000
vt 0.000000 1.000000
vt 0.541083 1.000000
vt 0.666667 1.000000
vt 0.000000 0.500000
vt 1.000000 0.500000
vt 0.887364 0.183572
vt 0.887364 0.816428
vt 0.333333 1.000000
vt 0.458917 1.000000
s 0
f 3/1/1 15/2/1 25/2/1 27/1/1
f 16/3/2 2/4/2 6/4/2 8/3/2
f 1/5/1 13/6/1 7/6/1 5/5/1
f 19/7/3 16/3/3 8/3/3 12/8/3
f 5/5/4 7/6/4 10/6/4 17/9/4 9/5/4
f 8/3/4 6/4/4 11/4/4 18/10/4 12/3/4
f 15/2/5 3/1/5 13/6/5 1/5/5
f 14/11/5 15/2/5 1/5/5 2/4/5
f 4/12/5 14/11/5 2/4/5 16/3/5
f 4/12/5 16/3/5 19/7/5
f 10/13/4 12/8/4 18/8/4 17/13/4
f 20/14/3 19/7/3 12/8/3 10/13/3
f 3/1/5 4/12/5 19/7/5 20/14/5
f 13/6/3 20/14/3 10/13/3 7/6/3
f 13/6/5 3/1/5 20/14/5
f 18/10/2 11/4/2 22/4/2 24/10/2
f 17/13/3 18/8/3 24/8/3 23/13/3
f 9/5/1 17/9/1 23/9/1 21/5/1
f 4/12/3 3/1/3 27/1/3 28/12/3
f 14/11/2 4/12/2 28/12/2 26/11/2
