# Blender 4.2.10 LTS
# www.blender.org
mtllib WallLVL1.mtl
o Paredes
v -1.000000 -0.330809 -2.500121
v -1.000000 1.686670 -2.500121
v -1.000000 -0.330809 -5.455679
v -1.000000 1.686670 -5.455679
v 1.000000 -0.330809 -2.500121
v 1.000000 1.686670 -2.500121
v 1.000000 -0.330809 -5.455679
v 1.000000 1.686670 -5.455679
v 1.988352 -0.330809 0.525570
v 1.988352 2.667755 0.524177
v -1.988352 2.667755 0.524177
v -1.988352 -0.330809 0.525570
v -1.988352 -0.330809 -2.500055
v -1.988352 2.667755 -2.500055
v 1.988352 2.667755 -2.500055
v 1.988352 -0.330809 -2.500055
v -1.988352 -0.330809 1.995708
v 1.988352 -0.330809 1.995708
v -5.988352 2.667755 1.995384
v 1.988352 2.667755 1.995384
v -1.988352 2.667755 1.995384
v -5.988352 -0.330809 1.995708
v 1.988352 5.888576 0.524177
v -1.988352 5.888576 0.524177
v 1.988352 6.932094 1.995384
v -1.988352 6.932094 1.995384
v -7.988352 2.667755 1.995384
v -7.988352 5.788934 1.995384
v 7.988352 2.667755 1.995384
v 7.988352 5.788934 1.995384
v -7.988352 2.667755 14.995384
v -7.988352 5.788934 14.995384
v 7.988352 2.667755 14.995384
v 7.988352 5.788934 14.995384
v 5.988352 -0.330809 1.995708
v 5.988352 2.667755 1.995384
v -5.988352 2.667755 7.995384
v -5.988352 -0.330809 7.995708
v 5.988352 -0.330809 7.995708
v 5.988352 2.667755 7.995384
v 1.988352 -0.330809 7.995708
v 1.988352 2.667755 7.995384
v -1.988352 2.667755 7.995384
v -1.988352 -0.330809 7.995708
v 1.998173 6.934364 14.995378
v -1.998173 6.934364 14.995380
v 1.988352 -0.330809 12.995708
v 1.988352 2.667755 12.995384
v -1.988352 2.667755 12.995384
v -1.988352 -0.330809 12.995708
v -0.988352 2.667755 14.995384
v -0.988352 4.713860 14.995384
v 0.988352 2.667755 14.995384
v 0.988352 4.713860 14.995384
v -0.988352 2.667755 16.995384
v -0.988352 4.713860 16.995384
v 0.988352 2.667755 16.995384
v 0.988352 4.713860 16.995384
vn 1.0000 -0.0000 -0.0000
vn -1.0000 -0.0000 -0.0000
vn -0.0000 -1.0000 -0.0000
vn -0.0001 -0.0000 1.0000
vn -0.0000 -0.0001 1.0000
vn 0.0001 -0.0000 1.0000
vn -0.0000 0.0001 1.0000
vn -0.0000 -0.8157 0.5785
vn -0.0000 -0.0000 1.0000
vn -0.0000 -0.0001 -1.0000
vn 0.1875 -0.9823 0.0002
vn -0.0000 -1.0000 0.0002
vn -0.1875 -0.9823 0.0002
vn -0.0000 -0.0000 -1.0000
vt 0.375000 0.000000
vt 0.375000 0.250000
vt 0.625000 0.250000
vt 0.625000 0.000000
vt 0.375000 0.500000
vt 0.375000 0.750000
vt 0.625000 0.750000
vt 0.625000 0.500000
vt 0.625000 1.000000
vt 0.875000 0.750000
vt 0.875000 0.500000
vt 0.375000 1.000000
vt 0.625000 0.916667
vt 0.625000 0.833333
vt 0.000000 0.000000
s 0
f 1/1/1 3/2/1 4/3/1 2/4/1
f 7/5/2 5/6/2 6/7/2 8/8/2
f 15/7/3 10/7/3 11/9/3 14/9/3
f 8/8/3 6/7/3 2/10/3 4/11/3
f 16/6/2 9/6/2 10/7/2 15/7/2
f 6/7/4 5/6/4 16/6/4 15/7/4
f 2/10/5 6/7/5 15/7/5 14/10/5
f 14/9/1 11/9/1 12/12/1 13/12/1
f 1/1/6 2/4/6 14/4/6 13/1/6
f 21/9/7 19/9/7 22/12/7 17/12/7
f 19/9/1 37/9/1 38/12/1 22/12/1
f 11/9/1 21/9/1 17/12/1 12/12/1
f 9/6/2 18/6/2 20/7/2 10/7/2
f 23/7/8 25/7/8 26/9/8 24/9/8
f 11/9/1 24/9/1 26/9/1 21/9/1
f 20/7/2 25/7/2 23/7/2 10/7/2
f 10/7/9 23/7/9 24/9/9 11/9/9
f 26/9/9 28/9/9 27/9/9 21/9/9
f 20/7/9 29/7/9 30/7/9 25/7/9
f 29/7/2 33/7/2 34/7/2 30/7/2
f 28/9/1 32/9/1 31/9/1 27/9/1
f 18/6/7 35/6/7 36/7/7 20/7/7
f 35/6/2 39/6/2 40/7/2 36/7/2
f 39/6/10 41/6/10 42/7/10 40/7/10
f 37/9/10 43/9/10 44/12/10 38/12/10
f 28/9/11 26/13/11 46/13/11 32/9/11
f 26/13/12 25/14/12 45/14/12 46/13/12
f 25/14/13 30/7/13 34/7/13 45/14/13
f 43/9/1 49/9/1 50/12/1 44/12/1
f 41/6/2 47/6/2 48/7/2 42/7/2
f 32/9/14 52/9/14 51/9/14 31/9/14
f 33/7/14 53/7/14 54/7/14 34/7/14
f 34/15/14 32/15/14 46/15/14 45/15/14
f 54/15/14 52/15/14 32/15/14 34/15/14
f 52/15/3 54/15/3 58/15/3 56/15/3
f 53/7/2 57/7/2 58/7/2 54/7/2
f 52/9/1 56/9/1 55/9/1 51/9/1
