# Blender 4.2.14 LTS
# www.blender.org
mtllib TutorialLvlBeans&Bullets.mtl
o TutorialLVL
v 1.503487 2.553156 -6.777960
v 1.503487 0.000001 -6.777960
v 2.296150 3.345820 1.000000
v 2.296150 0.000000 1.000000
v -1.503487 2.553156 -6.777960
v -1.503487 0.000001 -6.777960
v -2.296150 3.345820 1.000000
v -2.296150 0.000000 1.000000
v 2.296150 0.000000 -6.011689
v -2.296150 0.000000 -6.011689
v 2.296150 3.345820 -6.011689
v -2.296150 3.345820 -6.011689
v 1.503487 0.000001 -14.812756
v -1.503487 0.000001 -14.812756
v 1.503487 2.353377 -14.812756
v -1.503487 2.353377 -14.812756
v 1.503487 2.353377 -6.777973
v -1.503487 2.353377 -6.777973
v 2.959055 -0.001455 -14.812756
v -2.959055 -0.001455 -14.812756
v 2.959055 3.654512 -14.812756
v -2.959055 3.654512 -14.812756
v 1.036892 -0.001460 -29.774288
v -1.036892 -0.001460 -33.928520
v 1.036892 2.264171 -29.774288
v -1.036892 2.264171 -33.928520
v 2.959055 -0.001455 -29.774288
v -2.959055 -0.001455 -29.774288
v 2.959055 3.654512 -29.774288
v -2.959055 3.654512 -29.774288
v 1.036892 -0.001460 -35.777931
v -1.036892 -0.001460 -35.777931
v 1.036892 2.264171 -35.777931
v -1.036892 2.264171 -35.777931
v -1.036892 2.264171 -29.774288
v -1.036892 -0.001460 -29.774288
v -3.704462 -0.001460 -33.928520
v -3.704462 2.264171 -33.928520
v -3.704462 2.264171 -35.777931
v -3.704462 -0.001460 -35.777931
v -4.611988 3.256988 -36.588356
v -4.611988 3.256988 -33.118088
v -4.611988 -0.001460 -36.588356
v -4.611988 -0.001460 -33.118088
v -7.437666 3.256988 -36.588356
v -7.437666 3.256988 -33.118088
v -7.437666 -0.001460 -36.588356
v -7.437666 -0.001460 -33.118088
v -8.387287 2.269258 -35.780739
v -8.387287 2.269259 -33.925709
v -8.387287 -0.001460 -35.780739
v -8.387287 -0.001460 -33.925709
v -24.901844 2.269258 -35.780739
v -24.901844 2.269259 -33.925709
v -24.901844 -0.001460 -35.780739
v -24.901844 -0.001460 -33.925709
v -30.892048 2.269258 -35.780739
v -30.892048 2.269259 -33.925709
v -30.892048 -0.001460 -35.780739
v -30.892048 -0.001460 -33.925709
v -24.901844 2.269258 -38.673817
v -24.901844 -0.001460 -38.673817
v -30.892048 2.269258 -38.673817
v -30.892048 -0.001460 -38.673817
v -32.173580 2.269258 -36.698898
v -32.173580 -0.001460 -36.698898
v -32.173580 2.269258 -38.673843
v -32.173580 -0.001460 -38.673843
v -33.132896 2.269258 -36.698898
v -33.132896 -0.001460 -36.698898
v -33.132896 2.269258 -38.673843
v -33.132896 -0.001460 -38.673843
v -37.931648 2.269258 -36.698898
v -37.931648 -0.001460 -36.698898
v -43.534100 2.269259 -38.673843
v -43.534100 -0.001460 -38.673843
v -33.380116 2.022038 -40.837421
v -33.380116 -0.001460 -40.837421
v -35.685623 2.022038 -40.837421
v -35.685623 -0.001460 -40.837421
v -33.132896 2.269258 -40.837421
v -33.132896 -0.001460 -40.837421
v -39.700958 3.091071 -40.837421
v -39.700958 -0.001460 -40.837421
v -33.380116 2.022038 -41.687782
v -33.380116 -0.001460 -41.687782
v -35.685623 2.022038 -41.687782
v -35.685623 -0.001460 -41.687782
v -47.113651 2.269259 -38.673843
v -47.113651 -0.001460 -38.673843
v -47.545296 3.091071 -40.837421
v -47.545296 -0.001460 -40.837421
v -39.700958 3.091071 -38.673843
v -39.700958 -0.001460 -38.673843
v -47.545296 3.091071 -38.673843
v -47.545296 -0.001460 -38.673843
v -44.904533 1.837614 -35.995331
v -44.904533 -0.001460 -35.995331
v -47.113651 1.837614 -35.995331
v -47.113651 -0.001460 -35.995331
v -44.904533 1.837614 -21.740179
v -44.904533 -0.001460 -21.740179
v -47.113651 1.837614 -21.740179
v -47.113651 -0.001460 -21.740179
v -42.672401 5.526919 -21.740179
v -42.672401 -0.001460 -21.740179
v -49.345791 5.526919 -21.740179
v -49.345791 -0.001460 -21.740179
v -42.672401 2.973539 -10.532784
v -42.672401 -0.001460 -10.532784
v -49.345791 2.973539 -10.532784
v -49.345791 -0.001460 -10.532784
v -43.693317 -0.001460 -16.136480
v -48.324875 -0.001460 -16.136480
v -43.693317 5.526919 -16.136480
v -48.324875 5.526919 -16.136480
v -49.345791 -0.001460 -17.081699
v -42.672401 -0.001460 -17.081699
v -42.672401 5.526919 -17.081699
v -49.345791 5.526919 -17.081699
v -42.672401 -0.001460 -15.126677
v -42.672401 4.956002 -15.126677
v -49.345791 4.956002 -15.126677
v -49.345791 -0.001460 -15.126677
v -44.903900 1.837614 -6.781900
v -44.903900 -0.001460 -6.781900
v -47.114288 1.837614 -6.781900
v -47.114288 -0.001460 -6.781900
v -42.672401 2.973539 -6.781900
v -42.672401 -0.001460 -6.781900
v -49.345791 2.973539 -6.781900
v -49.345791 -0.001460 -6.781900
v -44.903900 1.837614 -1.958672
v -44.903900 -0.001460 -1.958672
v -47.114288 1.837614 -1.958672
v -47.114288 -0.001460 -1.958672
v -45.961479 1.837614 -0.948004
v -45.961479 -0.001460 -0.948004
v -47.959641 1.837614 -0.948004
v -47.959641 -0.001460 -0.948004
v -42.451496 1.837614 5.395515
v -42.451496 -0.001460 5.395515
v -44.449657 1.837614 5.395515
v -44.449657 -0.001460 5.395515
v -42.451496 1.837614 7.320995
v -42.451496 -0.001460 7.320995
v -44.449657 1.837614 7.320995
v -44.449657 -0.001460 7.320995
v -32.282707 1.837614 5.395515
v -32.282707 -0.001460 5.395515
v -32.282707 1.837614 7.320995
v -32.282707 -0.001460 7.320995
v -32.282707 3.889130 5.395477
v -32.282707 -0.001460 5.395477
v -32.282707 3.889130 7.321030
v -32.282707 -0.001460 7.321030
v -27.208885 3.889130 5.395477
v -27.208885 -0.001460 5.395477
v -27.208885 3.889130 7.321030
v -27.208885 -0.001460 7.321030
v -19.053898 3.889130 5.395477
v -19.053898 1.375360 5.395477
v -19.053898 3.889130 7.321030
v -19.053898 1.375360 7.321030
v -26.341797 3.889130 7.321030
v -26.341797 3.889130 5.395477
v -26.341797 1.375360 7.321030
v -26.341797 1.375360 5.395477
v -27.208885 0.720996 7.321030
v -17.743368 1.375360 4.465870
v -27.208885 0.720996 5.395477
v -17.743368 4.817564 4.465870
v -17.743368 4.817564 8.250637
v -17.743368 1.375360 8.250637
v -13.181642 3.888638 5.397173
v -13.181642 3.888638 7.319334
v -13.181642 1.375360 5.397173
v -13.181642 1.375360 7.319334
v -14.276776 4.817560 4.468250
v -14.276776 4.817560 8.248257
v -14.276776 1.375360 4.468250
v -14.276776 1.375360 8.248257
v -10.479633 3.888638 5.397173
v -10.479633 3.888638 7.319334
v -10.479633 1.375360 5.397173
v -10.479633 1.375360 7.319334
vn -0.0000 1.0000 -0.0000
vn -0.0000 -0.0000 1.0000
vn -1.0000 -0.0000 -0.0000
vn -0.0000 -1.0000 -0.0000
vn 1.0000 -0.0000 -0.0000
vn 0.6950 -0.0000 -0.7190
vn -0.6950 -0.0000 -0.7190
vn -0.0000 0.6950 -0.7190
vn -0.0000 0.0001 -1.0000
vn -0.0000 -0.0000 -1.0000
vn 0.6661 -0.0000 0.7459
vn 0.7381 0.6747 -0.0000
vn 0.6661 -0.0000 -0.7459
vn -0.6479 -0.0000 0.7618
vn -0.6479 -0.0000 -0.7618
vn -0.7209 0.6931 -0.0000
vn -0.5824 -0.0000 0.8129
vn -0.7448 -0.0000 0.6673
vn 0.1242 0.9923 -0.0000
vn 0.0710 0.9824 0.1726
vn -0.0000 -0.9960 0.0889
vn 0.8902 -0.0000 0.4555
vn -0.0000 0.9873 0.1591
vn -0.0000 0.9182 0.3962
vn -0.6794 -0.0000 0.7338
vn 0.6794 -0.0000 0.7338
vn -0.7032 -0.0000 -0.7110
vn -0.0000 0.8705 0.4922
vn 0.7032 -0.0000 -0.7110
vn -0.8750 -0.0000 0.4841
vn -0.7671 -0.0000 -0.6416
vn 0.6909 -0.0000 0.7230
vn 0.8750 -0.0000 -0.4841
vn 0.6024 -0.7982 -0.0000
vn -0.5781 0.8160 -0.0000
vn -0.5786 -0.0000 -0.8156
vn -0.5786 -0.0000 0.8156
vn 0.0007 -0.0000 1.0000
vn 0.0007 -0.0000 -1.0000
vn 0.6469 0.7626 -0.0000
vn 0.6469 -0.0000 0.7626
vn 0.6469 -0.0000 -0.7626
vt 0.625000 0.500000
vt 0.875000 0.500000
vt 0.875000 0.750000
vt 0.625000 0.750000
vt 0.375000 0.750000
vt 0.625000 1.000000
vt 0.375000 1.000000
vt 0.375000 0.000000
vt 0.625000 0.000000
vt 0.625000 0.250000
vt 0.375000 0.250000
vt 0.125000 0.500000
vt 0.375000 0.500000
vt 0.125000 0.750000
vt 0.434228 0.456848
vt 0.434228 0.293152
vt 0.434228 0.456848
vt 0.500000 0.456848
vt 0.565772 0.456848
vt 0.565772 0.293152
vt 0.500000 0.293152
vt 0.565772 0.293152
vt 0.565772 0.456848
vt 0.515537 0.331770
vt 0.515537 0.418230
vt 0.484463 0.331770
vt 0.484463 0.418230
vt 0.510023 0.331770
vt 0.489977 0.331770
vt 0.512154 0.331770
vt 0.487846 0.331770
vt 0.509630 0.331770
vt 0.490370 0.331770
vt 0.490370 0.331770
vt 0.490370 0.331770
vt 0.509630 0.331770
vt 0.509630 0.331770
vt 0.490370 0.331770
vt 0.497181 0.331770
vt 0.497181 0.331770
vt 0.502820 0.331770
vt 0.502820 0.331770
vt 0.500000 0.331770
vt 0.497181 0.331770
vt 0.497181 0.331770
vt 0.501298 0.331770
vt 0.498702 0.331770
vt 0.501298 0.331770
s 0
usemtl Material
f 11/1/1 12/2/1 7/3/1 3/4/1
f 4/5/2 3/4/2 7/6/2 8/7/2
f 8/8/3 7/9/3 12/10/3 10/11/3
f 10/12/4 9/13/4 4/5/4 8/14/4
f 9/13/5 11/1/5 3/4/5 4/5/5
f 2/15/4 6/16/4 14/16/4 13/17/4
f 6/16/4 2/17/4 9/13/4 10/11/4
f 2/17/6 17/18/6 1/19/6 11/1/6 9/13/6
f 5/20/7 18/21/7 6/16/7 10/11/7 12/10/7
f 1/19/8 5/20/8 12/10/8 11/1/8
f 16/20/2 15/19/2 21/19/2 22/20/2
f 18/22/1 17/23/1 15/19/1 16/20/1
f 17/23/5 2/15/5 13/17/5 15/19/5
f 6/16/3 18/22/3 16/20/3 14/16/3
f 5/20/9 1/19/9 17/23/9 18/22/9
f 22/20/1 21/19/1 29/19/1 30/20/1
f 15/19/2 13/17/2 19/17/2 21/19/2
f 14/16/2 16/20/2 22/20/2 20/16/2
f 13/17/2 14/16/2 20/16/2 19/17/2
f 35/24/1 25/25/1 33/25/1 34/24/1 26/24/1
f 21/19/5 19/17/5 27/17/5 29/19/5
f 20/16/3 22/20/3 30/20/3 28/16/3
f 19/17/4 20/16/4 28/16/4 27/17/4
f 36/26/2 23/27/2 27/17/2 28/16/2
f 23/27/10 25/25/10 29/19/10 27/17/10
f 35/24/10 36/26/10 28/16/10 30/20/10
f 25/25/10 35/24/10 30/20/10 29/19/10
f 32/26/10 34/24/10 33/25/10 31/27/10
f 25/25/5 23/27/5 31/27/5 33/25/5
f 26/24/1 34/24/1 39/24/1 38/24/1
f 23/27/4 36/26/4 24/26/4 32/26/4 31/27/4
f 26/28/3 24/29/3 36/26/3 35/24/3
f 32/26/4 24/26/4 37/26/4 40/26/4
f 24/29/2 26/28/2 38/28/2 37/29/2
f 37/29/11 38/28/11 42/28/11 44/29/11
f 34/24/10 32/26/10 40/26/10 39/24/10
f 41/24/10 43/26/10 47/26/10 45/24/10
f 38/24/12 39/24/12 41/24/12 42/24/12
f 39/24/13 40/26/13 43/26/13 41/24/13
f 40/26/4 37/26/4 44/26/4 43/26/4
f 48/29/14 46/28/14 50/28/14 52/29/14
f 42/24/1 41/24/1 45/24/1 46/24/1
f 44/29/2 42/28/2 46/28/2 48/29/2
f 43/26/4 44/26/4 48/26/4 47/26/4
f 49/24/10 51/26/10 55/26/10 53/24/10
f 47/26/4 48/26/4 52/26/4 51/26/4
f 45/24/15 47/26/15 51/26/15 49/24/15
f 46/24/16 45/24/16 49/24/16 50/24/16
f 53/24/5 55/26/5 62/26/5 61/24/5
f 50/24/1 49/24/1 53/24/1 54/24/1
f 52/29/2 50/28/2 54/28/2 56/29/2
f 51/26/4 52/26/4 56/26/4 55/26/4
f 60/29/3 58/28/3 57/24/3 59/26/3
f 54/24/1 53/24/1 57/24/1 58/24/1
f 56/29/2 54/28/2 58/28/2 60/29/2
f 55/26/4 56/26/4 60/26/4 59/26/4
f 61/24/10 62/26/10 64/26/10 63/24/10
f 57/24/1 53/24/1 61/24/1 63/24/1
f 55/26/4 59/26/4 64/26/4 62/26/4
f 57/24/1 63/24/1 67/24/1 65/24/1
f 65/24/1 67/24/1 71/24/1 69/24/1
f 64/26/4 59/26/4 66/26/4 68/26/4
f 59/26/17 57/24/17 65/24/17 66/26/17
f 63/24/10 64/26/10 68/26/10 67/24/10
f 72/26/4 70/26/4 74/26/4 94/26/4
f 66/26/2 65/24/2 69/24/2 70/26/2
f 68/26/4 66/26/4 70/26/4 72/26/4
f 67/24/10 68/26/10 72/26/10 71/24/10
f 74/26/18 73/24/18 93/24/18 94/26/18
f 93/24/19 71/24/19 81/24/19 83/24/19
f 69/24/20 71/24/20 93/24/20 73/24/20
f 70/26/2 69/24/2 73/24/2 74/26/2
f 79/30/1 77/30/1 85/30/1 87/30/1
f 71/24/5 72/26/5 82/26/5 81/24/5
f 72/26/4 94/26/4 84/26/4 82/26/4
f 84/26/4 94/26/4 96/26/4 92/26/4
f 78/31/10 77/30/10 81/24/10 82/26/10
f 79/30/10 80/31/10 84/26/10 83/24/10
f 80/31/10 78/31/10 82/26/10 84/26/10
f 77/30/10 79/30/10 83/24/10 81/24/10
f 85/30/10 86/31/10 88/31/10 87/30/10
f 80/31/3 79/30/3 87/30/3 88/31/3
f 78/31/4 80/31/4 88/31/4 86/31/4
f 77/30/5 78/31/5 86/31/5 85/30/5
f 96/26/3 95/24/3 91/24/3 92/26/3
f 93/24/1 83/24/1 91/24/1 95/24/1
f 83/24/10 84/26/10 92/26/10 91/24/10
f 89/32/3 90/33/3 100/33/3 99/32/3
f 75/32/2 76/34/2 94/26/2 93/24/2
f 90/33/2 89/32/2 95/24/2 96/26/2
f 76/34/21 90/33/21 96/26/21 94/26/21
f 89/32/2 75/32/2 93/24/2 95/24/2
f 100/33/4 98/34/4 102/34/4 104/33/4
f 90/33/4 76/34/4 98/34/4 100/33/4
f 76/34/22 75/32/22 97/32/22 98/34/22
f 75/32/23 89/32/23 99/32/23 97/32/23
f 101/32/10 103/32/10 107/32/10 105/32/10
f 98/34/5 97/32/5 101/32/5 102/34/5
f 97/32/1 99/32/1 103/32/1 101/32/1
f 99/32/3 100/33/3 104/33/3 103/32/3
f 124/33/4 121/35/4 110/34/4 112/33/4
f 103/32/10 104/33/10 108/33/10 107/32/10
f 104/33/1 102/34/1 106/34/1 108/33/1
f 102/34/10 101/32/10 105/32/10 106/34/10
f 112/33/4 110/34/4 130/34/4 132/33/4
f 121/35/5 122/36/5 109/32/5 110/34/5
f 122/36/24 123/37/24 111/32/24 109/32/24
f 123/37/3 124/33/3 112/33/3 111/32/3
f 120/32/25 117/33/25 114/33/25 116/32/25
f 119/37/1 120/32/1 116/32/1 115/32/1
f 118/38/26 119/37/26 115/32/26 113/34/26
f 117/33/4 118/38/4 113/34/4 114/33/4
f 108/33/4 106/34/4 118/38/4 117/33/4
f 106/34/5 105/32/5 119/37/5 118/38/5
f 105/32/1 107/32/1 120/32/1 119/37/1
f 107/32/3 108/33/3 117/33/3 120/32/3
f 116/32/27 114/33/27 124/33/27 123/37/27
f 115/32/28 116/32/28 123/37/28 122/36/28
f 113/34/29 115/32/29 122/36/29 121/35/29
f 114/33/4 113/34/4 121/35/4 124/33/4
f 128/39/4 126/40/4 134/40/4 136/39/4
f 110/34/5 109/32/5 129/32/5 130/34/5
f 109/32/1 111/32/1 131/32/1 129/32/1
f 111/32/3 112/33/3 132/33/3 131/32/3
f 125/41/2 126/40/2 130/34/2 129/32/2
f 128/39/2 127/42/2 131/32/2 132/33/2
f 126/40/1 128/39/1 132/33/1 130/34/1
f 127/42/2 125/41/2 129/32/2 131/32/2
f 133/41/1 135/42/1 139/42/1 137/41/1
f 126/40/5 125/41/5 133/41/5 134/40/5
f 125/41/1 127/42/1 135/42/1 133/41/1
f 127/42/3 128/39/3 136/39/3 135/42/3
f 139/42/30 140/39/30 144/39/30 143/42/30
f 135/42/31 136/39/31 140/39/31 139/42/31
f 136/39/4 134/40/4 138/40/4 140/39/4
f 134/40/32 133/41/32 137/41/32 138/40/32
f 144/39/4 142/40/4 146/40/4 148/39/4
f 140/39/4 138/40/4 142/40/4 144/39/4
f 138/40/33 137/41/33 141/41/33 142/40/33
f 137/41/1 139/42/1 143/42/1 141/41/1
f 146/40/2 145/41/2 147/42/2 148/39/2
f 142/40/10 141/41/10 149/41/10 150/40/10
f 141/41/1 143/42/1 147/42/1 145/41/1
f 143/42/3 144/39/3 148/39/3 147/42/3
f 152/40/5 150/40/5 154/40/5 156/40/5
f 141/41/1 145/41/1 151/41/1 149/41/1
f 146/40/4 142/40/4 150/40/4 152/40/4
f 145/41/2 146/40/2 152/40/2 151/41/2
f 156/40/4 154/40/4 158/40/4 160/40/4
f 150/40/3 149/41/3 153/41/3 154/40/3
f 149/41/3 151/41/3 155/41/3 153/41/3
f 151/41/3 152/40/3 156/40/3 155/41/3
f 166/41/1 165/41/1 163/41/1 161/41/1
f 154/40/10 153/41/10 157/41/10 171/43/10 158/40/10
f 153/41/1 155/41/1 159/41/1 157/41/1
f 155/41/2 156/40/2 160/40/2 169/43/2 159/41/2
f 164/40/4 162/40/4 170/40/4 174/40/4
f 165/41/2 167/40/2 164/40/2 163/41/2
f 167/40/4 168/40/4 162/40/4 164/40/4
f 168/40/10 166/41/10 161/41/10 162/40/10
f 171/44/10 157/41/10 166/41/10 168/40/10
f 169/45/34 171/44/34 168/40/34 167/40/34
f 159/41/2 169/45/2 167/40/2 165/41/2
f 157/41/1 159/41/1 165/41/1 166/41/1
f 161/41/35 163/41/35 173/41/35 172/41/35
f 162/40/36 161/41/36 172/41/36 170/40/36
f 160/40/5 158/40/5 171/44/5 169/45/5
f 174/40/4 170/40/4 181/40/4 182/40/4
f 163/41/37 164/40/37 174/40/37 173/41/37
f 176/46/2 178/47/2 186/47/2 184/46/2
f 172/41/1 173/41/1 180/41/1 179/41/1
f 173/41/38 174/40/38 182/40/38 180/41/38
f 170/40/39 172/41/39 179/41/39 181/40/39
f 176/46/40 175/48/40 179/41/40 180/41/40
f 177/47/4 178/47/4 182/40/4 181/40/4
f 178/47/41 176/46/41 180/41/41 182/40/41
f 175/48/42 177/47/42 181/40/42 179/41/42
f 185/47/5 183/48/5 184/46/5 186/47/5
f 175/48/1 176/46/1 184/46/1 183/48/1
f 177/47/10 175/48/10 183/48/10 185/47/10
f 178/47/4 177/47/4 185/47/4 186/47/4
